<svg width="394" height="126" viewBox="0 0 394 126" fill="none" xmlns="http://www.w3.org/2000/svg">
<path d="M184.691 81.2116C181.376 81.2116 178.38 81.2116 175.701 81.2116C173.049 81.2116 170.522 81.2116 168.119 81.2116C168.119 77.8642 168.119 74.6551 168.119 71.5844C168.119 68.4859 168.119 65.1247 168.119 61.5007V41.7898C168.119 39.3553 168.119 37.0592 168.119 34.9014C168.119 32.7435 168.119 30.6272 168.119 28.5524C168.119 26.4499 168.119 24.2782 168.119 22.0374H203.21V25.8966C200.282 25.8966 197.147 25.8966 193.805 25.8966C190.463 25.8966 186.514 25.8966 181.956 25.8966H169.983L172.221 22.5354C172.221 25.8828 172.221 29.1057 172.221 32.2041C172.221 35.2748 172.221 38.6361 172.221 42.2878V60.9197C172.221 63.9628 172.221 66.7984 172.221 69.4265C172.221 72.0546 172.221 74.7519 172.221 77.5184H184.235C187.991 77.5184 191.209 77.1172 193.888 76.315C196.595 75.485 198.666 74.0603 200.102 72.0408C201.539 69.9937 202.257 67.1166 202.257 63.4095C202.257 60.4218 201.718 58.098 200.641 56.4381C199.592 54.7782 198.252 53.5748 196.622 52.8279C195.02 52.081 193.377 51.6383 191.692 51.5C190.008 51.334 188.53 51.251 187.259 51.251H171.641V47.5578C173.408 47.5578 175.632 47.5578 178.311 47.5578C181.017 47.5578 184.083 47.5578 187.508 47.5578C191.844 47.5578 195.407 48.1526 198.197 49.3422C201.014 50.5041 203.099 52.2746 204.453 54.6537C205.834 57.0052 206.524 59.9791 206.524 63.5755C206.524 66.9506 205.875 69.9798 204.577 72.6633C203.279 75.319 201.042 77.4077 197.865 78.9293C194.689 80.4508 190.298 81.2116 184.691 81.2116Z" fill="url(#paint0_linear_22_54)"/>
<path d="M219.016 81.2116C219.016 77.8642 219.016 74.6551 219.016 71.5844C219.016 68.4859 219.016 65.1386 219.016 61.5422V41.7898C219.016 38.1381 219.016 34.763 219.016 31.6646C219.016 28.5662 219.016 25.3571 219.016 22.0374H223.117C223.117 25.3848 223.117 28.6077 223.117 31.7061C223.117 34.7769 223.117 38.1381 223.117 41.7898V73.7007H223.531L238.156 53.3259C241.746 48.3463 245.406 43.256 249.135 38.0551C252.863 32.8542 256.689 27.515 260.61 22.0374H264.339C264.339 25.3571 264.339 28.5662 264.339 31.6646C264.339 34.763 264.339 38.1381 264.339 41.7898V61.5422C264.339 65.1386 264.339 68.4859 264.339 71.5844C264.339 74.6551 264.339 77.8642 264.339 81.2116H260.238C260.238 77.8642 260.238 74.6551 260.238 71.5844C260.238 68.4859 260.238 65.1247 260.238 61.5007V29.4653H259.823L245.24 49.7986C240.794 55.9678 236.747 61.5975 233.101 66.6878C229.456 71.778 225.989 76.6193 222.703 81.2116H219.016Z" fill="url(#paint1_linear_22_54)"/>
<path d="M307.165 82C302.332 82 298.078 81.2116 294.405 79.6347C290.732 78.0302 287.652 75.817 285.166 72.9952C282.708 70.1458 280.844 66.8952 279.573 63.2435C278.331 59.5642 277.709 55.6635 277.709 51.5415C277.709 45.7873 278.883 40.6141 281.231 36.0218C283.578 31.4018 286.934 27.7501 291.298 25.0667C295.689 22.3556 300.923 21 307 21C311.64 21 315.755 21.7884 319.345 23.3653C322.936 24.9422 325.974 27.1277 328.46 29.9218C330.973 32.7159 332.865 35.9526 334.136 39.632C335.434 43.3113 336.083 47.2673 336.083 51.5C336.083 57.3372 334.909 62.5519 332.561 67.1442C330.241 71.7365 326.913 75.3605 322.577 78.0163C318.268 80.6721 313.131 82 307.165 82ZM307 78.0993C311.336 78.0993 315.064 77.3801 318.185 75.9415C321.306 74.4753 323.861 72.4834 325.85 69.966C327.866 67.4485 329.357 64.6129 330.324 61.4592C331.291 58.2778 331.774 54.9581 331.774 51.5C331.774 47.793 331.249 44.3349 330.2 41.1259C329.178 37.8891 327.631 35.0673 325.56 32.6605C323.488 30.2261 320.906 28.3311 317.813 26.9755C314.719 25.5923 311.115 24.9007 307 24.9007C302.746 24.9007 299.045 25.62 295.896 27.0585C292.775 28.4971 290.179 30.4751 288.108 32.9925C286.064 35.4823 284.531 38.3179 283.509 41.4993C282.515 44.6807 282.018 48.0143 282.018 51.5C282.018 55.0134 282.501 58.3746 283.468 61.5837C284.462 64.7651 285.967 67.6007 287.984 70.0905C290.027 72.5803 292.624 74.5444 295.772 75.983C298.921 77.3939 302.663 78.0993 307 78.0993Z" fill="url(#paint2_linear_22_54)"/>
<path d="M375.305 82C370.692 82 366.535 81.2254 362.834 79.6762C359.161 78.127 356.04 75.9692 353.471 73.2027C350.903 70.4363 348.928 67.1995 347.547 63.4925C346.194 59.7578 345.517 55.7465 345.517 51.4585C345.517 45.4553 346.746 40.1714 349.204 35.6068C351.69 31.0145 355.087 27.432 359.396 24.8592C363.704 22.2864 368.621 21 374.145 21C376.133 21 378.053 21.1522 379.903 21.4565C381.754 21.7608 383.494 22.1619 385.123 22.6599C386.753 23.1578 388.244 23.6973 389.598 24.2782C390.979 24.8315 392.152 25.3848 393.119 25.9381L392.622 30.1708C390.468 28.9259 388.355 27.9299 386.283 27.183C384.239 26.4084 382.209 25.8413 380.193 25.4816C378.205 25.122 376.244 24.9422 374.31 24.9422C369.532 24.9422 365.293 26.0349 361.592 28.2204C357.918 30.4059 355.032 33.4905 352.933 37.4742C350.861 41.4578 349.826 46.1469 349.826 51.5415C349.826 55.2209 350.364 58.6651 351.441 61.8742C352.519 65.0832 354.134 67.905 356.289 70.3395C358.443 72.7463 361.122 74.6413 364.326 76.0245C367.53 77.4077 371.231 78.0993 375.429 78.0993C376.893 78.0993 378.343 78.0163 379.779 77.8503C381.243 77.6567 382.679 77.38 384.088 77.0204C385.524 76.6331 386.919 76.1351 388.272 75.5265C389.625 74.8903 390.923 74.1295 392.166 73.2442L392.705 77.4769C391.545 78.2515 390.274 78.9293 388.893 79.5102C387.512 80.0912 386.076 80.5615 384.585 80.9211C383.093 81.2807 381.56 81.5435 379.986 81.7095C378.439 81.9032 376.879 82 375.305 82Z" fill="url(#paint3_linear_22_54)"/>
<path d="M174.405 104.891C173.973 104.48 173.566 104.095 173.184 103.736C172.803 103.378 172.429 103.029 172.063 102.69L170.199 100.935H169.609V100.432H170.211L171.804 98.9511C172.181 98.6043 172.553 98.2613 172.919 97.922C173.284 97.5828 173.709 97.1883 174.193 96.7386H174.984C174.512 97.1731 174.053 97.5962 173.609 98.0078C173.165 98.4156 172.72 98.8254 172.276 99.237L170.594 100.786V100.535L172.458 102.301C172.753 102.572 173.064 102.866 173.391 103.182C173.721 103.494 174.046 103.799 174.364 104.097C174.683 104.394 174.964 104.659 175.208 104.891H174.405ZM169.119 104.891C169.119 104.43 169.119 103.988 169.119 103.565C169.119 103.138 169.119 102.677 169.119 102.181V99.46C169.119 98.9569 169.119 98.4919 169.119 98.065C169.119 97.6381 169.119 97.1959 169.119 96.7386H169.709C169.709 97.1959 169.709 97.6381 169.709 98.065C169.709 98.4919 169.709 98.9569 169.709 99.46V102.181C169.709 102.677 169.709 103.138 169.709 103.565C169.709 103.988 169.709 104.43 169.709 104.891H169.119Z" fill="url(#paint4_linear_22_54)"/>
<path d="M176.373 104.977C176.303 104.977 176.23 104.975 176.155 104.971C176.084 104.968 176.017 104.96 175.954 104.949C175.895 104.941 175.84 104.933 175.789 104.926L175.848 104.383C175.931 104.402 176.01 104.417 176.084 104.428C176.163 104.436 176.234 104.44 176.297 104.44C176.674 104.44 176.959 104.295 177.152 104.005C177.349 103.712 177.49 103.256 177.577 102.639C177.667 102.021 177.742 101.23 177.801 100.266C177.84 99.6753 177.878 99.0884 177.913 98.5052C177.949 97.922 177.986 97.3332 178.025 96.7386H183.211C183.211 97.1959 183.211 97.6381 183.211 98.065C183.211 98.4919 183.211 98.9569 183.211 99.46V102.181C183.211 102.677 183.211 103.138 183.211 103.565C183.211 103.988 183.211 104.43 183.211 104.891H182.621C182.621 104.43 182.621 103.988 182.621 103.565C182.621 103.138 182.621 102.677 182.621 102.181V99.5286C182.621 99.0255 182.621 98.5624 182.621 98.1393C182.621 97.7124 182.621 97.2684 182.621 96.8072L182.993 97.2588H178.22L178.58 96.8586C178.541 97.4456 178.503 98.0345 178.468 98.6253C178.432 99.2122 178.391 99.8221 178.344 100.455C178.293 101.229 178.234 101.899 178.167 102.467C178.104 103.035 178.008 103.506 177.878 103.879C177.748 104.249 177.563 104.525 177.323 104.708C177.083 104.888 176.767 104.977 176.373 104.977Z" fill="url(#paint5_linear_22_54)"/>
<path d="M185.678 104.891C185.678 104.43 185.678 103.988 185.678 103.565C185.678 103.138 185.678 102.677 185.678 102.181V99.46C185.678 98.9569 185.678 98.4919 185.678 98.065C185.678 97.6381 185.678 97.1959 185.678 96.7386H186.262C186.262 97.1998 186.262 97.6438 186.262 98.0707C186.262 98.4938 186.262 98.9569 186.262 99.46V103.857H186.321L188.404 101.049C188.915 100.363 189.436 99.662 189.967 98.9454C190.498 98.2289 191.043 97.4932 191.602 96.7386H192.133C192.133 97.1959 192.133 97.6381 192.133 98.065C192.133 98.4919 192.133 98.9569 192.133 99.46V102.181C192.133 102.677 192.133 103.138 192.133 103.565C192.133 103.988 192.133 104.43 192.133 104.891H191.549C191.549 104.43 191.549 103.988 191.549 103.565C191.549 103.138 191.549 102.675 191.549 102.176V97.762H191.49L189.413 100.563C188.779 101.413 188.203 102.189 187.684 102.89C187.165 103.592 186.671 104.259 186.203 104.891H185.678Z" fill="url(#paint6_linear_22_54)"/>
<path d="M200.379 104.891C200.379 104.43 200.379 103.988 200.379 103.565C200.379 103.138 200.379 102.677 200.379 102.181V99.46C200.379 98.9569 200.379 98.4919 200.379 98.065C200.379 97.6381 200.379 97.1959 200.379 96.7386H200.969C200.969 97.1959 200.969 97.6381 200.969 98.065C200.969 98.4919 200.969 98.9569 200.969 99.46V102.181C200.969 102.677 200.969 103.138 200.969 103.565C200.969 103.988 200.969 104.43 200.969 104.891H200.379ZM194.597 104.891C194.597 104.43 194.597 103.988 194.597 103.565C194.597 103.138 194.597 102.677 194.597 102.181V99.46C194.597 98.9569 194.597 98.4919 194.597 98.065C194.597 97.6381 194.597 97.1959 194.597 96.7386H195.187C195.187 97.1959 195.187 97.6381 195.187 98.065C195.187 98.4919 195.187 98.9569 195.187 99.46V102.181C195.187 102.677 195.187 103.138 195.187 103.565C195.187 103.988 195.187 104.43 195.187 104.891H194.597ZM194.904 101.009V100.495H200.704V101.009H194.904Z" fill="url(#paint7_linear_22_54)"/>
<path d="M203.435 104.891C203.435 104.43 203.435 103.988 203.435 103.565C203.435 103.138 203.435 102.677 203.435 102.181V99.46C203.435 98.9569 203.435 98.4919 203.435 98.065C203.435 97.6381 203.435 97.1959 203.435 96.7386H204.02C204.02 97.1998 204.02 97.6438 204.02 98.0707C204.02 98.4938 204.02 98.9569 204.02 99.46V103.857H204.079L206.161 101.049C206.673 100.363 207.194 99.662 207.725 98.9454C208.256 98.2289 208.8 97.4932 209.359 96.7386H209.89C209.89 97.1959 209.89 97.6381 209.89 98.065C209.89 98.4919 209.89 98.9569 209.89 99.46V102.181C209.89 102.677 209.89 103.138 209.89 103.565C209.89 103.988 209.89 104.43 209.89 104.891H209.306C209.306 104.43 209.306 103.988 209.306 103.565C209.306 103.138 209.306 102.675 209.306 102.176V97.762H209.247L207.17 100.563C206.537 101.413 205.961 102.189 205.441 102.89C204.922 103.592 204.429 104.259 203.961 104.891H203.435Z" fill="url(#paint8_linear_22_54)"/>
<path d="M217.641 104.891C217.208 104.48 216.801 104.095 216.42 103.736C216.038 103.378 215.664 103.029 215.299 102.69L213.434 100.935H212.844V100.432H213.446L215.039 98.9511C215.417 98.6043 215.788 98.2613 216.154 97.922C216.52 97.5828 216.945 97.1883 217.428 96.7386H218.219C217.747 97.1731 217.289 97.5962 216.844 98.0078C216.4 98.4156 215.955 98.8254 215.511 99.237L213.829 100.786V100.535L215.694 102.301C215.989 102.572 216.3 102.866 216.626 103.182C216.956 103.494 217.281 103.799 217.6 104.097C217.918 104.394 218.199 104.659 218.443 104.891H217.641ZM212.354 104.891C212.354 104.43 212.354 103.988 212.354 103.565C212.354 103.138 212.354 102.677 212.354 102.181V99.46C212.354 98.9569 212.354 98.4919 212.354 98.065C212.354 97.6381 212.354 97.1959 212.354 96.7386H212.944C212.944 97.1959 212.944 97.6381 212.944 98.065C212.944 98.4919 212.944 98.9569 212.944 99.46V102.181C212.944 102.677 212.944 103.138 212.944 103.565C212.944 103.988 212.944 104.43 212.944 104.891H212.354Z" fill="url(#paint9_linear_22_54)"/>
<path d="M219.255 104.891C219.428 104.449 219.609 103.988 219.798 103.508C219.986 103.024 220.167 102.563 220.34 102.124L221.438 99.3285C221.634 98.8292 221.811 98.3756 221.969 97.9678C222.13 97.5599 222.291 97.1502 222.452 96.7386H223.261C223.422 97.154 223.581 97.5638 223.739 97.9678C223.896 98.3718 224.073 98.8273 224.27 99.3342L225.355 102.141C225.528 102.591 225.707 103.054 225.892 103.531C226.077 104.003 226.252 104.457 226.417 104.891H225.798C225.609 104.392 225.412 103.878 225.208 103.348C225.003 102.818 224.812 102.317 224.635 101.844L222.895 97.3103H222.812L221.066 101.804C220.873 102.296 220.675 102.808 220.47 103.342C220.266 103.872 220.065 104.388 219.868 104.891H219.255ZM220.559 102.656L220.588 102.164H225.125L225.149 102.656H220.559Z" fill="url(#paint10_linear_22_54)"/>
<path d="M230.319 104.891C230.319 104.43 230.319 103.988 230.319 103.565C230.319 103.138 230.319 102.677 230.319 102.181V99.46C230.319 98.9569 230.319 98.4919 230.319 98.065C230.319 97.6381 230.319 97.1959 230.319 96.7386H236.668C236.668 97.1959 236.668 97.6381 236.668 98.065C236.668 98.4919 236.668 98.9569 236.668 99.46V102.181C236.668 102.677 236.668 103.138 236.668 103.565C236.668 103.988 236.668 104.43 236.668 104.891H236.078C236.078 104.43 236.078 103.988 236.078 103.565C236.078 103.138 236.078 102.677 236.078 102.181V99.5286C236.078 99.0255 236.078 98.5624 236.078 98.1393C236.078 97.7124 236.078 97.2684 236.078 96.8072L236.361 97.2588H230.62L230.909 96.8072C230.909 97.2684 230.909 97.7124 230.909 98.1393C230.909 98.5624 230.909 99.0255 230.909 99.5286V102.181C230.909 102.677 230.909 103.138 230.909 103.565C230.909 103.988 230.909 104.43 230.909 104.891H230.319Z" fill="url(#paint11_linear_22_54)"/>
<path d="M238.657 104.977C238.586 104.977 238.513 104.975 238.438 104.971C238.368 104.968 238.301 104.96 238.238 104.949C238.179 104.941 238.124 104.933 238.073 104.926L238.132 104.383C238.214 104.402 238.293 104.417 238.368 104.428C238.446 104.436 238.517 104.44 238.58 104.44C238.958 104.44 239.243 104.295 239.435 104.005C239.632 103.712 239.774 103.256 239.86 102.639C239.951 102.021 240.025 101.23 240.084 100.266C240.124 99.6753 240.161 99.0884 240.197 98.5052C240.232 97.922 240.269 97.3332 240.309 96.7386H245.495C245.495 97.1959 245.495 97.6381 245.495 98.065C245.495 98.4919 245.495 98.9569 245.495 99.46V102.181C245.495 102.677 245.495 103.138 245.495 103.565C245.495 103.988 245.495 104.43 245.495 104.891H244.905C244.905 104.43 244.905 103.988 244.905 103.565C244.905 103.138 244.905 102.677 244.905 102.181V99.5286C244.905 99.0255 244.905 98.5624 244.905 98.1393C244.905 97.7124 244.905 97.2684 244.905 96.8072L245.276 97.2588H240.503L240.863 96.8586C240.824 97.4456 240.787 98.0345 240.751 98.6253C240.716 99.2122 240.674 99.8221 240.627 100.455C240.576 101.229 240.517 101.899 240.45 102.467C240.387 103.035 240.291 103.506 240.161 103.879C240.031 104.249 239.847 104.525 239.607 104.708C239.367 104.888 239.05 104.977 238.657 104.977Z" fill="url(#paint12_linear_22_54)"/>
<path d="M247.13 104.891C247.303 104.449 247.484 103.988 247.672 103.508C247.861 103.024 248.042 102.563 248.215 102.124L249.313 99.3285C249.509 98.8292 249.686 98.3756 249.843 97.9678C250.005 97.5599 250.166 97.1502 250.327 96.7386H251.136C251.297 97.154 251.456 97.5638 251.613 97.9678C251.771 98.3718 251.948 98.8273 252.144 99.3342L253.23 102.141C253.403 102.591 253.582 103.054 253.767 103.531C253.952 104.003 254.127 104.457 254.292 104.891H253.673C253.484 104.392 253.287 103.878 253.083 103.348C252.878 102.818 252.687 102.317 252.51 101.844L250.77 97.3103H250.687L248.941 101.804C248.748 102.296 248.549 102.808 248.345 103.342C248.14 103.872 247.94 104.388 247.743 104.891H247.13ZM248.433 102.656L248.463 102.164H253L253.024 102.656H248.433Z" fill="url(#paint13_linear_22_54)"/>
<path d="M259.248 105C258.591 105 258 104.893 257.472 104.68C256.949 104.466 256.505 104.169 256.139 103.788C255.773 103.407 255.492 102.961 255.295 102.45C255.103 101.936 255.006 101.383 255.006 100.792C255.006 99.965 255.181 99.237 255.531 98.6081C255.885 97.9754 256.369 97.4818 256.983 97.1273C257.596 96.7729 258.296 96.5956 259.083 96.5956C259.366 96.5956 259.64 96.6166 259.903 96.6585C260.167 96.7005 260.415 96.7557 260.647 96.8243C260.879 96.8929 261.091 96.9673 261.284 97.0473C261.48 97.1235 261.648 97.1998 261.785 97.276L261.715 97.8591C261.408 97.6876 261.107 97.5504 260.812 97.4475C260.521 97.3408 260.232 97.2626 259.945 97.2131C259.661 97.1635 259.382 97.1388 259.107 97.1388C258.426 97.1388 257.823 97.2893 257.295 97.5904C256.772 97.8915 256.361 98.3165 256.062 98.8654C255.767 99.4142 255.62 100.06 255.62 100.804C255.62 101.31 255.697 101.785 255.85 102.227C256.003 102.669 256.233 103.058 256.54 103.393C256.847 103.725 257.229 103.986 257.685 104.177C258.141 104.367 258.668 104.463 259.266 104.463C259.475 104.463 259.681 104.451 259.886 104.428C260.094 104.402 260.299 104.363 260.499 104.314C260.704 104.261 260.902 104.192 261.095 104.108C261.288 104.02 261.473 103.916 261.65 103.794L261.726 104.377C261.561 104.484 261.38 104.577 261.184 104.657C260.987 104.737 260.782 104.802 260.57 104.851C260.358 104.901 260.139 104.937 259.915 104.96C259.695 104.987 259.473 105 259.248 105Z" fill="url(#paint14_linear_22_54)"/>
<path d="M265.898 104.891C265.898 104.43 265.898 103.988 265.898 103.565C265.898 103.138 265.898 102.677 265.898 102.181V99.5286C265.898 99.0255 265.898 98.5624 265.898 98.1393C265.898 97.7124 265.898 97.2684 265.898 96.8072L266.152 97.2646H265.214C264.722 97.2646 264.285 97.2646 263.904 97.2646C263.526 97.2646 263.164 97.2646 262.818 97.2646V96.7386H269.556V97.2646C269.214 97.2646 268.852 97.2646 268.47 97.2646C268.093 97.2646 267.656 97.2646 267.161 97.2646H266.223L266.488 96.8072C266.488 97.2684 266.488 97.7124 266.488 98.1393C266.488 98.5624 266.488 99.0255 266.488 99.5286V102.181C266.488 102.677 266.488 103.138 266.488 103.565C266.488 103.988 266.488 104.43 266.488 104.891H265.898Z" fill="url(#paint15_linear_22_54)"/>
<path d="M271.181 104.891C271.181 104.43 271.181 103.988 271.181 103.565C271.181 103.138 271.181 102.677 271.181 102.181V99.46C271.181 98.9569 271.181 98.4919 271.181 98.065C271.181 97.6381 271.181 97.1959 271.181 96.7386H271.765C271.765 97.1998 271.765 97.6438 271.765 98.0707C271.765 98.4938 271.765 98.9569 271.765 99.46V103.857H271.824L273.907 101.049C274.418 100.363 274.939 99.662 275.47 98.9454C276.001 98.2289 276.546 97.4932 277.104 96.7386H277.635C277.635 97.1959 277.635 97.6381 277.635 98.065C277.635 98.4919 277.635 98.9569 277.635 99.46V102.181C277.635 102.677 277.635 103.138 277.635 103.565C277.635 103.988 277.635 104.43 277.635 104.891H277.051C277.051 104.43 277.051 103.988 277.051 103.565C277.051 103.138 277.051 102.675 277.051 102.176V97.762H276.992L274.915 100.563C274.282 101.413 273.706 102.189 273.187 102.89C272.668 103.592 272.174 104.259 271.706 104.891H271.181Z" fill="url(#paint16_linear_22_54)"/>
<path d="M284.885 104.891C284.885 104.434 284.885 103.994 284.885 103.571C284.885 103.148 284.885 102.688 284.885 102.193V101.335C284.72 101.411 284.521 101.492 284.289 101.575C284.057 101.659 283.789 101.73 283.486 101.787C283.184 101.84 282.845 101.867 282.472 101.867C281.85 101.867 281.323 101.779 280.89 101.604C280.462 101.429 280.135 101.162 279.911 100.804C279.691 100.445 279.581 99.9974 279.581 99.46C279.581 99.3761 279.581 99.2923 279.581 99.2084C279.581 99.1208 279.581 99.035 279.581 98.9511C279.581 98.5357 279.581 98.1603 279.581 97.8248C279.581 97.4856 279.581 97.1235 279.581 96.7386H280.171C280.171 97.1426 280.171 97.5237 280.171 97.882C280.171 98.2365 280.171 98.6253 280.171 99.0483V99.4314C280.171 99.8583 280.253 100.215 280.418 100.501C280.584 100.786 280.843 101 281.197 101.141C281.551 101.282 282.006 101.352 282.56 101.352C282.891 101.352 283.193 101.328 283.469 101.278C283.748 101.229 284.006 101.162 284.242 101.078C284.478 100.994 284.692 100.901 284.885 100.798V99.46C284.885 98.9569 284.885 98.4919 284.885 98.065C284.885 97.6381 284.885 97.1959 284.885 96.7386H285.475C285.475 97.1959 285.475 97.6381 285.475 98.065C285.475 98.4919 285.475 98.9569 285.475 99.46V102.181C285.475 102.677 285.475 103.138 285.475 103.565C285.475 103.988 285.475 104.43 285.475 104.891H284.885Z" fill="url(#paint17_linear_22_54)"/>
<path d="M287.947 104.891C287.947 104.43 287.947 103.988 287.947 103.565C287.947 103.138 287.947 102.675 287.947 102.176V99.46C287.947 98.9569 287.947 98.4919 287.947 98.065C287.947 97.6381 287.947 97.1959 287.947 96.7386H292.98V97.2588C292.571 97.2588 292.13 97.2588 291.658 97.2588C291.19 97.2588 290.638 97.2588 290 97.2588H288.219L288.531 96.8072C288.531 97.2684 288.531 97.7124 288.531 98.1393C288.531 98.5662 288.531 99.0293 288.531 99.5286V102.101C288.531 102.597 288.531 103.058 288.531 103.485C288.531 103.908 288.531 104.35 288.531 104.811L288.236 104.371H290.059C290.602 104.371 291.113 104.371 291.593 104.371C292.073 104.371 292.533 104.371 292.974 104.371V104.891H287.947ZM288.413 101.004V100.495H290.101C290.659 100.495 291.141 100.495 291.546 100.495C291.951 100.495 292.343 100.495 292.72 100.495V101.004C292.319 101.004 291.916 101.004 291.511 101.004C291.11 101.004 290.636 101.004 290.089 101.004H288.413Z" fill="url(#paint18_linear_22_54)"/>
<path d="M298.612 105C297.955 105 297.363 104.893 296.836 104.68C296.313 104.466 295.868 104.169 295.503 103.788C295.137 103.407 294.856 102.961 294.659 102.45C294.466 101.936 294.37 101.383 294.37 100.792C294.37 99.965 294.545 99.237 294.895 98.6081C295.249 97.9754 295.733 97.4818 296.346 97.1273C296.96 96.7729 297.66 96.5956 298.447 96.5956C298.73 96.5956 299.003 96.6166 299.267 96.6585C299.53 96.7005 299.778 96.7557 300.01 96.8243C300.242 96.8929 300.455 96.9673 300.647 97.0473C300.844 97.1235 301.011 97.1998 301.149 97.276L301.078 97.8591C300.771 97.6876 300.47 97.5504 300.175 97.4475C299.884 97.3408 299.595 97.2626 299.308 97.2131C299.025 97.1635 298.746 97.1388 298.47 97.1388C297.79 97.1388 297.186 97.2893 296.659 97.5904C296.136 97.8915 295.725 98.3165 295.426 98.8654C295.131 99.4142 294.983 100.06 294.983 100.804C294.983 101.31 295.06 101.785 295.214 102.227C295.367 102.669 295.597 103.058 295.904 103.393C296.211 103.725 296.592 103.986 297.048 104.177C297.505 104.367 298.032 104.463 298.63 104.463C298.838 104.463 299.045 104.451 299.249 104.428C299.458 104.402 299.662 104.363 299.863 104.314C300.067 104.261 300.266 104.192 300.459 104.108C300.651 104.02 300.836 103.916 301.013 103.794L301.09 104.377C300.925 104.484 300.744 104.577 300.547 104.657C300.35 104.737 300.146 104.802 299.933 104.851C299.721 104.901 299.503 104.937 299.279 104.96C299.058 104.987 298.836 105 298.612 105Z" fill="url(#paint19_linear_22_54)"/>
<path d="M308.306 104.891C307.873 104.48 307.466 104.095 307.085 103.736C306.703 103.378 306.33 103.029 305.964 102.69L304.099 100.935H303.509V100.432H304.111L305.704 98.9511C306.082 98.6043 306.453 98.2613 306.819 97.922C307.185 97.5828 307.61 97.1883 308.094 96.7386H308.884C308.412 97.1731 307.954 97.5962 307.51 98.0078C307.065 98.4156 306.621 98.8254 306.176 99.237L304.495 100.786V100.535L306.359 102.301C306.654 102.572 306.965 102.866 307.291 103.182C307.622 103.494 307.946 103.799 308.265 104.097C308.583 104.394 308.865 104.659 309.108 104.891H308.306ZM303.02 104.891C303.02 104.43 303.02 103.988 303.02 103.565C303.02 103.138 303.02 102.677 303.02 102.181V99.46C303.02 98.9569 303.02 98.4919 303.02 98.065C303.02 97.6381 303.02 97.1959 303.02 96.7386H303.61C303.61 97.1959 303.61 97.6381 303.61 98.065C303.61 98.4919 303.61 98.9569 303.61 99.46V102.181C303.61 102.677 303.61 103.138 303.61 103.565C303.61 103.988 303.61 104.43 303.61 104.891H303.02Z" fill="url(#paint20_linear_22_54)"/>
<path d="M314.017 105C313.329 105 312.723 104.891 312.2 104.674C311.677 104.453 311.239 104.148 310.885 103.759C310.534 103.367 310.269 102.919 310.088 102.416C309.911 101.909 309.823 101.371 309.823 100.804C309.823 100.011 309.99 99.298 310.324 98.6653C310.658 98.0288 311.136 97.5256 311.758 97.1559C312.383 96.7824 313.128 96.5956 313.994 96.5956C314.655 96.5956 315.241 96.7043 315.752 96.9215C316.263 97.1388 316.696 97.4399 317.05 97.8248C317.408 98.2098 317.677 98.6558 317.858 99.1627C318.043 99.6696 318.136 100.215 318.136 100.798C318.136 101.602 317.968 102.321 317.634 102.953C317.304 103.586 316.83 104.085 316.212 104.451C315.599 104.817 314.867 105 314.017 105ZM313.994 104.463C314.611 104.463 315.142 104.363 315.587 104.165C316.031 103.963 316.395 103.689 316.678 103.342C316.965 102.995 317.178 102.604 317.315 102.17C317.453 101.732 317.522 101.274 317.522 100.798C317.522 100.287 317.447 99.8106 317.298 99.3685C317.152 98.9226 316.932 98.5338 316.637 98.2022C316.342 97.8668 315.974 97.6057 315.534 97.4189C315.093 97.2283 314.58 97.1331 313.994 97.1331C313.388 97.1331 312.861 97.2322 312.413 97.4304C311.968 97.6286 311.598 97.9011 311.303 98.2479C311.012 98.591 310.794 98.9816 310.649 99.42C310.507 99.8583 310.436 100.318 310.436 100.798C310.436 101.282 310.505 101.745 310.643 102.187C310.784 102.625 310.999 103.016 311.286 103.359C311.577 103.702 311.947 103.973 312.395 104.171C312.843 104.365 313.376 104.463 313.994 104.463Z" fill="url(#paint21_linear_22_54)"/>
<path d="M320.04 104.891C320.04 104.43 320.04 103.988 320.04 103.565C320.04 103.138 320.04 102.677 320.04 102.181V99.46C320.04 98.9569 320.04 98.4919 320.04 98.065C320.04 97.6381 320.04 97.1959 320.04 96.7386H320.624C320.624 97.1998 320.624 97.6438 320.624 98.0707C320.624 98.4938 320.624 98.9569 320.624 99.46V103.857H320.683L322.765 101.049C323.277 100.363 323.798 99.662 324.329 98.9454C324.86 98.2289 325.405 97.4932 325.963 96.7386H326.494C326.494 97.1959 326.494 97.6381 326.494 98.065C326.494 98.4919 326.494 98.9569 326.494 99.46V102.181C326.494 102.677 326.494 103.138 326.494 103.565C326.494 103.988 326.494 104.43 326.494 104.891H325.91C325.91 104.43 325.91 103.988 325.91 103.565C325.91 103.138 325.91 102.675 325.91 102.176V97.762H325.851L323.774 100.563C323.141 101.413 322.565 102.189 322.046 102.89C321.526 103.592 321.033 104.259 320.565 104.891H320.04ZM323.243 95.7495C322.795 95.7495 322.421 95.6713 322.122 95.5151C321.823 95.355 321.599 95.1435 321.45 94.8805C321.304 94.6175 321.231 94.3297 321.231 94.0172L321.739 94C321.739 94.4193 321.867 94.7432 322.122 94.9719C322.382 95.2006 322.755 95.315 323.243 95.315C323.739 95.315 324.11 95.2025 324.358 94.9777C324.61 94.749 324.736 94.4288 324.736 94.0172H325.243C325.243 94.3297 325.172 94.6175 325.031 94.8805C324.889 95.1435 324.671 95.355 324.376 95.5151C324.081 95.6713 323.703 95.7495 323.243 95.7495Z" fill="url(#paint22_linear_22_54)"/>
<path d="M330.485 104.891C330.737 104.525 330.993 104.156 331.252 103.782C331.512 103.409 331.785 103.014 332.072 102.599L333.447 100.615V100.844L332.249 99.1798C331.97 98.7949 331.689 98.408 331.406 98.0192C331.126 97.6266 330.82 97.1998 330.485 96.7386H331.193C331.476 97.1312 331.752 97.5161 332.019 97.8935C332.291 98.267 332.548 98.6253 332.792 98.9683L333.742 100.283H333.819L334.745 98.9569C334.989 98.6138 335.243 98.2536 335.506 97.8763C335.77 97.4951 336.033 97.1159 336.297 96.7386H336.993C336.698 97.1616 336.415 97.5657 336.143 97.9506C335.872 98.3356 335.622 98.6939 335.394 99.0255L334.114 100.849V100.609L335.441 102.393C335.768 102.827 336.08 103.245 336.379 103.645C336.678 104.045 336.989 104.461 337.311 104.891H336.592C336.305 104.503 336.031 104.135 335.772 103.788C335.512 103.437 335.26 103.1 335.016 102.776L333.831 101.187H333.754L332.645 102.782C332.405 103.125 332.167 103.466 331.931 103.805C331.699 104.141 331.447 104.503 331.176 104.891H330.485Z" fill="url(#paint23_linear_22_54)"/>
<path d="M339.03 104.891C339.03 104.43 339.03 103.988 339.03 103.565C339.03 103.138 339.03 102.677 339.03 102.181V99.46C339.03 98.9569 339.03 98.4919 339.03 98.065C339.03 97.6381 339.03 97.1959 339.03 96.7386H339.614C339.614 97.1998 339.614 97.6438 339.614 98.0707C339.614 98.4938 339.614 98.9569 339.614 99.46V103.857H339.673L341.756 101.049C342.267 100.363 342.788 99.662 343.319 98.9454C343.85 98.2289 344.395 97.4932 344.953 96.7386H345.484C345.484 97.1959 345.484 97.6381 345.484 98.065C345.484 98.4919 345.484 98.9569 345.484 99.46V102.181C345.484 102.677 345.484 103.138 345.484 103.565C345.484 103.988 345.484 104.43 345.484 104.891H344.9C344.9 104.43 344.9 103.988 344.9 103.565C344.9 103.138 344.9 102.675 344.9 102.176V97.762H344.841L342.765 100.563C342.131 101.413 341.555 102.189 341.036 102.89C340.517 103.592 340.023 104.259 339.555 104.891H339.03Z" fill="url(#paint24_linear_22_54)"/>
<path d="M347.949 104.891C347.949 104.43 347.949 103.988 347.949 103.565C347.949 103.138 347.949 102.675 347.949 102.176V99.46C347.949 98.9569 347.949 98.4919 347.949 98.065C347.949 97.6381 347.949 97.1959 347.949 96.7386C348.26 96.7386 348.649 96.7386 349.117 96.7386C349.585 96.7386 350.116 96.7386 350.71 96.7386C351.328 96.7386 351.835 96.8205 352.232 96.9844C352.633 97.1483 352.93 97.3941 353.123 97.7219C353.32 98.0497 353.418 98.4576 353.418 98.9454C353.418 99.4219 353.326 99.8468 353.141 100.22C352.956 100.594 352.637 100.889 352.185 101.107C351.733 101.324 351.109 101.432 350.315 101.432C350.118 101.432 349.904 101.432 349.672 101.432C349.444 101.432 349.221 101.432 349.005 101.432C348.793 101.432 348.608 101.432 348.45 101.432V100.929H350.244C350.838 100.929 351.324 100.863 351.701 100.729C352.079 100.596 352.358 100.384 352.539 100.095C352.72 99.8049 352.81 99.4219 352.81 98.9454C352.81 98.549 352.742 98.2365 352.604 98.0078C352.47 97.7791 352.295 97.6114 352.079 97.5047C351.866 97.3941 351.636 97.3236 351.389 97.2931C351.141 97.2626 350.903 97.2474 350.675 97.2474H348.244L348.533 96.8072C348.533 97.2684 348.533 97.7124 348.533 98.1393C348.533 98.5662 348.533 99.0293 348.533 99.5286V102.176C348.533 102.675 348.533 103.138 348.533 103.565C348.533 103.988 348.533 104.43 348.533 104.891H347.949Z" fill="url(#paint25_linear_22_54)"/>
<path d="M356.351 104.891C356.535 104.552 356.72 104.205 356.905 103.851C357.09 103.496 357.287 103.123 357.495 102.73L355.489 99.0941C355.273 98.7015 355.064 98.3261 354.864 97.9678C354.663 97.6095 354.435 97.1998 354.179 96.7386H354.858C355.062 97.1159 355.245 97.4551 355.407 97.7562C355.572 98.0535 355.723 98.3318 355.861 98.591C356.003 98.8463 356.142 99.1017 356.28 99.3571C356.421 99.6124 356.573 99.8888 356.734 100.186L357.778 102.101H357.861L358.84 100.226C359.006 99.9174 359.155 99.6315 359.289 99.3685C359.426 99.1017 359.562 98.8387 359.696 98.5795C359.834 98.3165 359.979 98.0383 360.132 97.7448C360.29 97.4475 360.467 97.1121 360.663 96.7386H361.312C361.053 97.2264 360.781 97.7391 360.498 98.2765C360.215 98.8139 359.957 99.3018 359.725 99.7401L358.357 102.324C358.156 102.709 357.934 103.129 357.69 103.582C357.45 104.036 357.22 104.472 357 104.891H356.351Z" fill="url(#paint26_linear_22_54)"/>
<path d="M362.895 104.891C362.895 104.43 362.895 103.988 362.895 103.565C362.895 103.138 362.895 102.675 362.895 102.176V99.46C362.895 98.9569 362.895 98.4919 362.895 98.065C362.895 97.6381 362.895 97.1959 362.895 96.7386C363.205 96.7386 363.595 96.7386 364.063 96.7386C364.531 96.7386 365.062 96.7386 365.656 96.7386C366.273 96.7386 366.781 96.8205 367.178 96.9844C367.579 97.1483 367.876 97.3941 368.069 97.7219C368.266 98.0497 368.364 98.4576 368.364 98.9454C368.364 99.4219 368.271 99.8468 368.087 100.22C367.902 100.594 367.583 100.889 367.131 101.107C366.678 101.324 366.055 101.432 365.26 101.432C365.064 101.432 364.849 101.432 364.617 101.432C364.389 101.432 364.167 101.432 363.951 101.432C363.738 101.432 363.553 101.432 363.396 101.432V100.929H365.19C365.784 100.929 366.269 100.863 366.647 100.729C367.025 100.596 367.304 100.384 367.485 100.095C367.666 99.8049 367.756 99.4219 367.756 98.9454C367.756 98.549 367.687 98.2365 367.55 98.0078C367.416 97.7791 367.241 97.6114 367.025 97.5047C366.812 97.3941 366.582 97.3236 366.334 97.2931C366.086 97.2626 365.849 97.2474 365.62 97.2474H363.19L363.479 96.8072C363.479 97.2684 363.479 97.7124 363.479 98.1393C363.479 98.5662 363.479 99.0293 363.479 99.5286V102.176C363.479 102.675 363.479 103.138 363.479 103.565C363.479 103.988 363.479 104.43 363.479 104.891H362.895Z" fill="url(#paint27_linear_22_54)"/>
<path d="M370.154 104.891C370.154 104.43 370.154 103.988 370.154 103.565C370.154 103.138 370.154 102.677 370.154 102.181V99.46C370.154 98.9569 370.154 98.4919 370.154 98.065C370.154 97.6381 370.154 97.1959 370.154 96.7386H375.034V97.2646C374.617 97.2646 374.17 97.2646 373.694 97.2646C373.218 97.2646 372.656 97.2646 372.007 97.2646H370.473L370.744 96.8072C370.744 97.2684 370.744 97.7124 370.744 98.1393C370.744 98.5624 370.744 99.0255 370.744 99.5286V102.181C370.744 102.677 370.744 103.138 370.744 103.565C370.744 103.988 370.744 104.43 370.744 104.891H370.154Z" fill="url(#paint28_linear_22_54)"/>
<path d="M376.746 104.891C376.746 104.43 376.746 103.988 376.746 103.565C376.746 103.138 376.746 102.677 376.746 102.181V99.46C376.746 98.9569 376.746 98.4919 376.746 98.065C376.746 97.6381 376.746 97.1959 376.746 96.7386H377.33C377.33 97.1998 377.33 97.6438 377.33 98.0707C377.33 98.4938 377.33 98.9569 377.33 99.46V103.857H377.389L379.471 101.049C379.983 100.363 380.504 99.662 381.035 98.9454C381.566 98.2289 382.111 97.4932 382.669 96.7386H383.2C383.2 97.1959 383.2 97.6381 383.2 98.065C383.2 98.4919 383.2 98.9569 383.2 99.46V102.181C383.2 102.677 383.2 103.138 383.2 103.565C383.2 103.988 383.2 104.43 383.2 104.891H382.616C382.616 104.43 382.616 103.988 382.616 103.565C382.616 103.138 382.616 102.675 382.616 102.176V97.762H382.557L380.48 100.563C379.847 101.413 379.271 102.189 378.752 102.89C378.232 103.592 377.739 104.259 377.271 104.891H376.746Z" fill="url(#paint29_linear_22_54)"/>
<path d="M385.665 104.891C385.665 104.43 385.665 103.988 385.665 103.565C385.665 103.138 385.665 102.677 385.665 102.181V99.46C385.665 98.9569 385.665 98.4919 385.665 98.065C385.665 97.6381 385.665 97.1959 385.665 96.7386H386.249C386.249 97.1998 386.249 97.6438 386.249 98.0707C386.249 98.4938 386.249 98.9569 386.249 99.46V103.857H386.308L388.39 101.049C388.902 100.363 389.423 99.662 389.954 98.9454C390.485 98.2289 391.03 97.4932 391.588 96.7386H392.119C392.119 97.1959 392.119 97.6381 392.119 98.065C392.119 98.4919 392.119 98.9569 392.119 99.46V102.181C392.119 102.677 392.119 103.138 392.119 103.565C392.119 103.988 392.119 104.43 392.119 104.891H391.535C391.535 104.43 391.535 103.988 391.535 103.565C391.535 103.138 391.535 102.675 391.535 102.176V97.762H391.476L389.399 100.563C388.766 101.413 388.19 102.189 387.671 102.89C387.151 103.592 386.658 104.259 386.19 104.891H385.665Z" fill="url(#paint30_linear_22_54)"/>
<path d="M99.8892 62.8643L99.8212 63.2978L99.7121 63.7736C99.036 66.7001 98.2687 70.0152 95.8908 72.1347L95.6271 72.368L95.6991 72.025C95.9932 70.5842 96.5134 69.2016 97.017 67.8679C97.5972 66.3195 98.1987 64.7247 98.4458 63.0414C98.8331 61.3977 98.8748 59.7124 98.9171 58.0826C98.9541 56.6346 98.9917 55.1356 99.2686 53.6664L99.3341 53.3169L99.4881 53.6387C100.871 56.5182 100.349 59.8915 99.8892 62.8643ZM94.5683 76.802C94.3753 77.0842 94.1632 77.336 93.9557 77.5812C93.8433 77.7114 93.7316 77.8442 93.6219 77.9797L93.5869 78.0101C93.228 78.2057 92.5731 78.558 91.8989 78.9261C91.1415 79.3345 90.3531 79.7608 89.9315 79.9915L87.4974 81.3113C86.4359 81.9504 85.9978 82.1136 84.7275 82.1341L84.5035 82.1388L84.629 81.9524C85.3593 80.8731 85.7202 80.6187 86.8325 80.08L89.2646 78.7609C89.6842 78.5368 90.4463 78.1218 91.1905 77.7187C91.8758 77.3452 92.5493 76.9817 92.92 76.7815L92.9643 76.7669C93.1368 76.7511 93.3073 76.7273 93.4771 76.7068C93.7944 76.6671 94.1255 76.6248 94.4705 76.6182L94.6965 76.6136L94.5683 76.802ZM64.9071 88.8092L64.7669 88.8885C64.6738 88.9447 64.5786 89.0101 64.4848 89.0756C64.2402 89.2408 63.9931 89.416 63.7439 89.416C63.6758 89.416 63.6058 89.4014 63.5383 89.3716L62.89 89.3036C62.0487 89.2177 60.8571 89.0914 60.3211 89.0405C59.4375 88.7557 59.1506 88.6275 58.7964 87.7134L58.7541 87.6044L58.8658 87.5647C59.6681 87.2706 59.9272 87.3196 60.5894 87.6599C61.2305 87.728 62.5146 87.8609 63.3031 87.9402L63.6831 87.9771C64.0116 87.9144 64.2892 88.1893 64.5502 88.4642C64.6295 88.5482 64.7088 88.6321 64.7861 88.7021L64.9071 88.8092ZM91.9551 101.236L91.8104 101.908C90.591 107.525 89.332 113.333 85.2939 117.552L84.7877 118.082L85.1049 117.422C90.0947 106.995 92.0575 96.9508 90.9386 87.5647C84.3475 90.3484 78.7609 94.3958 74.7763 99.2733C74.5476 99.5555 74.1372 99.6136 73.8365 99.4107C69.8592 96.592 64.6341 95.1255 58.6213 95.1255C57.8844 95.1255 57.1382 95.1486 56.3761 95.1909C56.2737 100.644 57.7747 106.156 59.2273 111.488C59.7613 113.449 60.3119 115.477 60.7666 117.445L60.9318 118.161L60.5518 117.531C58.6728 114.414 57.353 110.864 56.628 106.974L56.4416 106.088C55.4344 101.335 54.3921 96.4222 55.2473 91.589C54.3359 91.6049 53.7835 91.579 53.5132 91.5189L53.4755 91.5024C53.2309 91.3484 52.9673 91.1898 52.6923 91.0292C51.4611 90.3015 50.0672 89.4741 49.3911 88.2871L49.2834 88.1034L49.4982 88.1146C50.8623 88.182 52.235 89.0564 53.4451 89.8283C53.648 89.9592 53.8462 90.0848 54.0372 90.2037C54.2963 90.1991 54.6043 90.1898 54.9493 90.1806L55.5322 90.1667C55.5368 90.1429 55.5415 90.1178 55.5461 90.0967C55.8375 89.2831 56.129 88.4881 56.4204 87.6976C57.9801 83.4678 59.4559 79.472 59.8406 74.9931L56.8143 71.2299C55.854 70.1361 55.3154 69.3484 54.8488 67.8402L54.7629 67.56L55.0167 67.702C56.3927 68.4812 57.0476 69.1785 57.9101 70.3582L62.7063 76.3241C63.6619 77.4153 64.1748 78.1641 64.6718 79.7119L64.765 80.0008L64.5013 79.8474C63.1002 79.0332 62.4776 78.3716 61.6125 77.1939L60.3978 75.6857C60.6568 77.833 60.4216 80.08 59.6681 82.6965C59.6866 82.6892 59.7078 82.68 59.7289 82.6728C59.8036 82.6496 59.9992 82.5472 60.2041 82.4401C60.8643 82.0925 61.3422 81.8499 61.557 81.9266C62.0163 81.9901 62.8807 82.1156 63.7366 82.2372C64.5594 82.3536 65.3737 82.4679 65.8231 82.5353C66.0868 82.5214 66.3386 82.6754 66.5646 82.8545C66.973 83.0997 67.1687 83.2491 67.1429 83.4308C67.1151 83.6125 66.8891 83.7037 66.4271 83.8201C66.0398 84.0276 65.3895 83.9086 64.8139 83.8062C64.5806 83.7639 64.3592 83.7222 64.2052 83.715C64.1933 83.715 62.2 83.4281 61.5497 83.335C61.3494 83.4308 61.1717 83.5213 61.0065 83.6053C60.405 83.9132 59.9642 84.1393 59.2207 84.1393H59.2161C59.0733 84.5636 58.9292 84.9833 58.7799 85.3937C58.9946 85.3124 59.1903 85.2701 59.3952 85.2654L61.1717 84.972C61.2398 84.9648 61.3144 84.9648 61.3957 84.972C62.1676 85.0976 64.1636 85.4102 64.9117 85.5265C65.2613 85.6574 65.562 85.9112 65.8535 86.1564C65.9189 86.2099 65.9843 86.2634 66.0471 86.317L66.2031 86.4432L66.0167 86.5179C65.9374 86.5456 65.8581 86.578 65.7815 86.6111C65.4292 86.7532 65.0631 86.9025 64.7161 86.9164C64.1682 86.8279 63.0116 86.6461 62.1095 86.5033L61.2814 86.3705C61.0693 86.3963 60.7546 86.4544 60.4235 86.5199C59.7197 86.6507 58.9893 86.7974 58.6589 86.7274L58.4857 86.6666C58.4348 86.6461 58.3859 86.6269 58.3344 86.6111L58.0106 87.4643C57.6768 88.3407 57.3318 89.2408 57.0172 90.1271L60.2722 90.0431C60.8108 89.9942 61.3468 90.1872 61.8669 90.3743C62.0672 90.4437 62.2727 90.5163 62.4703 90.5745L62.8272 90.675L62.4776 90.7939C62.2866 90.8613 62.095 90.9406 61.8927 91.0246C61.4004 91.2295 60.8901 91.4442 60.3674 91.4442C60.2788 91.4442 60.1836 91.4396 60.0574 91.4396C59.5822 91.4396 58.8169 91.47 57.9524 91.5024C57.5466 91.5209 57.1243 91.5374 56.7073 91.5539C56.5745 92.3556 56.4878 93.0436 56.4369 93.6966L56.4952 93.6874C66.3598 93.2234 76.1054 89.9334 85.1677 86.4478L85.2708 86.6573C79.3458 90.3088 72.3211 92.8407 64.3803 94.1857C68.0199 94.8082 71.2835 96.0626 74.0956 97.9211C78.6069 92.4627 84.5662 88.6744 90.8943 87.2383C90.7562 86.1332 90.591 84.9581 90.3412 83.7923L90.1786 83.0369L90.556 83.7084C93.4705 88.8912 92.9505 95.1955 91.9551 101.236ZM75.7161 119.529L75.5595 119.893L75.0889 117.079L75.1795 114.685C75.3454 110.581 74.8418 106.412 74.3263 102.876L74.3243 102.861L74.3263 102.845C74.3547 102.584 74.3798 102.321 74.4036 102.057C74.4545 101.509 74.508 100.947 74.6012 100.378L74.662 100.019L74.8232 100.346C75.504 101.738 75.8628 103.151 76.0234 105.072C76.0677 105.44 76.1173 105.808 76.1662 106.179C76.3242 107.389 76.4901 108.639 76.5205 109.881C76.5251 110.509 76.5462 111.157 76.5693 111.787C76.6579 114.409 76.7511 117.121 75.7161 119.529ZM48.6608 84.3164C47.1527 83.6007 45.9822 82.7455 44.6181 81.3721L37.3978 74.6805C35.9173 73.4241 34.9471 72.2861 34.1594 70.8777L33.9842 70.563L34.3106 70.7144C35.7725 71.3905 36.9827 72.2695 38.3514 73.6568L45.5718 80.351C47.0429 81.6028 47.9801 82.7058 48.8128 84.1558L48.9966 84.4797L48.6608 84.3164ZM44.4085 88.3314L32.8792 81.2274C28.7618 78.7701 25.8822 76.5575 25.2226 73.7387C24.6674 71.3654 25.6185 68.5116 28.4049 64.1959L28.426 64.2098C28.5516 63.9369 29.1649 62.8781 31.7834 58.3364C32.1403 57.6557 32.5527 56.9214 33.0774 56.0352C32.7926 53.718 33.7185 51.1372 35.5578 49.1182C35.5816 49.097 35.6047 49.0785 35.6259 49.0593C35.5955 49.0316 35.567 49.0058 35.5373 48.9754C35.4626 48.906 35.388 48.8333 35.3106 48.7659C34.0543 47.3807 33.4621 45.9187 33.5434 44.4125C33.7139 41.3466 36.5815 38.5563 39.27 36.1757C39.2324 34.4759 39.165 32.2659 38.9687 30.1391C38.2252 25.6066 42.4874 22.0258 43.8118 21.0398C45.2268 19.9671 46.8076 18.8594 48.7778 17.5561C52.7835 11.8955 59.1248 8.293 65.4523 8.04847C59.3766 5.86816 52.5595 7.66117 48.6912 12.5155L48.5028 12.378C52.7134 6.2204 61.6455 4.02884 68.0126 7.58448C68.2506 7.70345 68.3953 7.95061 68.3834 8.23215C68.3715 8.51238 68.2083 8.74768 67.9591 8.84813C61.2655 11.762 55.1172 15.052 49.6918 18.6215C47.957 21.1045 46.8473 23.9167 46.388 26.9826C46.0872 27.9475 45.8864 28.9389 45.7423 29.7591C49.6264 25.3806 53.0096 20.5685 55.5342 16.843L56.1455 15.9429L55.7397 16.9521C53.1443 23.4084 48.5048 29.6474 41.5568 36.0244C41.2845 36.2808 40.9858 36.5485 40.6778 36.8241L40.685 37.3019C40.7035 38.2761 40.7201 39.2813 40.7201 40.2277C40.8714 43.1561 40.1022 46.1944 38.3019 49.7731C39.4188 50.8431 40.7875 52.1696 41.6896 53.8297C43.0094 56.1521 43.6155 59.0012 43.3967 61.8477C43.3055 62.4492 43.1846 63.0513 43.0233 63.6943C43.5738 64.0281 44.1264 64.3565 44.6789 64.683C46.2994 65.646 47.9708 66.6413 49.5563 67.7093L50.0414 68.0358L49.4704 67.9194C47.234 67.4694 45.0424 66.5878 42.5825 65.1444C42.0842 66.6506 41.4379 68.0893 40.6639 69.425L40.4544 69.3272C41.042 67.7001 41.4682 66.1192 41.7247 64.6222C39.7545 63.3936 37.8617 61.974 36.0264 60.6007L35.6933 60.3508C34.7746 59.7032 34.0754 58.8889 33.616 57.9333L33.5414 58.0595C33.3524 58.3853 33.166 58.7144 32.9935 59.0363C32.4172 60.1016 31.6922 61.3257 30.9275 62.6197C29.3162 65.338 27.4908 68.4204 26.6422 70.7825C25.4698 74.473 28.6732 76.7207 31.4985 78.7074C32.2427 79.2295 32.9466 79.7212 33.5645 80.2294L44.5368 88.1358L44.4085 88.3314ZM62.9812 57.5975C63.2799 54.9281 65.5158 53.1259 67.1733 52.0063C67.3947 51.8642 67.6208 51.7294 67.8468 51.5919C69.3953 50.6541 70.9947 49.6819 71.2141 47.8539C71.1368 47.6186 70.9431 46.7865 71.0039 46.5182L70.9993 46.2875C70.9874 45.8791 70.9761 45.4574 70.992 45.0331L71.0065 44.6597L71.2068 44.9723C71.3119 45.1382 71.4236 45.3034 71.5333 45.4647C71.9741 46.117 72.4334 46.7931 72.6033 47.5955C72.6898 49.0785 71.7454 50.442 70.8341 51.2324C70.1295 51.8153 69.388 52.2819 68.6723 52.732C67.5163 53.4636 66.4225 54.1516 65.5416 55.2658C64.9791 56.0682 64.2845 56.6954 63.5476 57.3623C63.424 57.472 63.3004 57.5836 63.1748 57.6979L62.9462 57.9075L62.9812 57.5975ZM60.4658 56.392C60.1063 54.8951 59.1275 53.8813 58.0899 52.8113C57.6537 52.3632 57.2036 51.8992 56.8051 51.3956L56.6584 51.2112L56.8936 51.2066H56.9657C58.7633 51.2066 59.9946 52.5172 60.7474 53.7247C60.9364 52.841 61.2021 52.0301 61.5332 51.3071C62.3864 50.2463 62.6593 50.1901 62.8252 50.2721C63.1279 50.4353 62.9508 51.1881 62.438 52.8179C62.3864 52.9811 62.3402 53.1325 62.2979 53.2706C62.0209 54.2217 61.8643 55.215 61.8365 56.2149C61.8339 56.6181 61.5193 56.8421 61.2258 56.8798C61.1954 56.8844 61.1624 56.8864 61.1301 56.8864C60.8571 56.8864 60.5544 56.7397 60.4658 56.392ZM55.0239 55.0563C57.8169 55.8045 60.0131 57.3041 60.7593 58.9755L60.8643 59.2108L60.6191 59.1341C59.6404 58.8354 58.7521 58.3436 57.8936 57.8632C56.8963 57.3087 55.8653 56.735 54.6994 56.4832C53.5528 56.1052 52.3751 56.0847 51.2331 56.0636C50.251 56.047 49.2345 56.0285 48.2365 55.7906L47.992 55.7298L48.1968 55.5831C49.6522 54.5197 52.2726 54.3194 55.0239 55.0563ZM59.4163 36.1526C59.6053 36.7652 59.493 37.2272 59.3139 37.8148L59.2762 37.9384L59.1572 37.8868C58.6027 37.6588 58.2294 37.2457 58.0569 36.6535C57.7026 35.46 58.2459 33.7601 58.9358 32.7648C59.0271 32.5989 59.1507 32.4476 59.3066 32.3121C58.1012 31.7808 56.9564 30.7854 55.9869 29.8734L55.9677 29.8503C55.5646 29.1861 55.1568 28.4584 54.905 27.6561L54.7926 27.2999L55.2011 27.621C55.786 28.0803 56.3412 28.5146 56.9472 28.8616L56.973 28.8827C58.4811 30.4682 59.7547 31.2467 60.8505 31.2467C60.9549 31.2467 61.058 31.2421 61.1578 31.2282C62.8272 30.9976 63.9395 28.8847 65.1192 26.6488C65.6459 25.6489 66.1892 24.6159 66.8072 23.7065L67.0074 23.4104L67.0193 23.7673C67.1217 26.8101 65.5316 29.9249 62.7644 32.098C62.1253 32.5619 61.4288 32.7436 60.6238 32.6716C60.6218 32.6782 60.6218 32.6855 60.6191 32.6921C60.594 32.788 60.5656 32.8884 60.5563 32.977L60.5518 33.0186L60.5214 33.049C59.68 33.8698 59.2669 35.031 59.4163 36.1526ZM44.4595 45.6927C44.6227 47.339 45.3319 48.7983 46.0146 50.2113C46.4184 51.0487 46.8354 51.9111 47.1453 52.8113L47.2458 53.1027L46.9801 52.9507C44.9888 51.8292 43.4688 49.1036 43.0167 45.8374C42.5686 42.6202 43.2778 39.631 44.8633 38.0336L45.0774 37.8168L45.0616 38.1228C45.0146 39.0738 44.8514 40.0156 44.6954 40.9296C44.4152 42.5455 44.1495 44.0722 44.4595 45.6927ZM54.252 81.7634C54.5157 81.5611 54.9843 81.1923 55.4529 80.8262C55.9519 80.4369 56.4529 80.0456 56.7212 79.8381L56.7469 79.817L56.7773 79.8144C56.9122 79.7939 57.045 79.7701 57.1778 79.7443C57.4276 79.698 57.6861 79.6491 57.9683 79.6306L58.1388 79.6208L58.0853 79.784C58.0013 80.0503 57.889 80.2902 57.7846 80.5189C57.7284 80.6425 57.6702 80.7661 57.6187 80.8943L57.5816 80.9406C57.3411 81.1296 56.9029 81.4699 56.4528 81.8222C55.9353 82.2253 55.3993 82.6423 55.1125 82.8664C54.5692 83.2861 53.1682 84.3818 52.6454 84.7949L52.6222 84.8154L52.5918 84.8201C52.4709 84.8392 52.352 84.8623 52.233 84.8835C51.9673 84.9324 51.6944 84.9833 51.3956 84.9978L51.2278 85.0071L51.2773 84.8484C51.3659 84.5636 51.4822 84.3098 51.5939 84.0672C51.6455 83.9575 51.697 83.8458 51.7459 83.7315L51.7551 83.7038L51.7809 83.6846C52.3004 83.2841 53.716 82.1831 54.252 81.7634ZM47.456 62.9812C44.7443 60.2623 43.7648 56.7509 44.8348 53.5918L44.9796 53.1655L45.0616 53.6083C45.4389 55.6948 45.8282 57.4323 46.4884 59.1295C48.2114 63.0275 53.1794 66.2057 57.8308 64.7108C58.6589 64.6249 59.5326 64.3704 60.6079 63.9018L61.0534 63.7082L60.7427 64.0836C60.1321 64.8251 59.3046 65.4801 58.2835 66.0332L58.2644 66.0425C57.3622 66.3452 56.4132 66.4926 55.4482 66.4926C52.6454 66.4926 49.7169 65.2448 47.456 62.9812ZM85.4941 70.3205L85.4571 70.302L85.4406 70.2624C85.4056 70.1804 85.3686 70.0991 85.3335 70.0178C85.2496 69.8288 85.1611 69.6352 85.0956 69.3999L85.0678 69.2902L85.1723 69.2551C85.4009 69.1851 85.6065 69.1501 85.8041 69.1197C85.898 69.1038 85.9912 69.0892 86.0844 69.0707L86.126 69.0615L86.1636 69.0827C86.5502 69.2968 87.611 69.8751 88.0148 70.0918C88.2197 70.2015 88.5885 70.4025 88.954 70.5981C89.3155 70.7937 89.677 70.99 89.8726 71.0971L89.9076 71.1182L89.9242 71.1579C89.9612 71.253 90.0035 71.3416 90.0431 71.4328C90.1224 71.6099 90.2037 71.7943 90.2691 72.0157L90.3022 72.1255L90.1898 72.1578C89.9777 72.2232 89.7821 72.2537 89.5911 72.286C89.4906 72.3026 89.3882 72.3184 89.2851 72.3376L89.2434 72.3468L89.2038 72.3283C89.0359 72.2371 88.7398 72.0765 88.4272 71.906C88.0194 71.6846 87.5786 71.4467 87.3499 71.3231C86.9448 71.099 85.888 70.5307 85.4941 70.3205ZM79.7773 81.4673C79.8593 81.1553 79.973 80.8751 80.0827 80.6028C80.1316 80.4858 80.1805 80.3649 80.2274 80.2433L80.2578 80.199C80.7938 79.71 82.2492 78.367 82.799 77.8581C83.0462 77.632 83.4612 77.2474 83.8974 76.8443C84.4519 76.3314 85.0374 75.7901 85.3401 75.5132L85.3871 75.4875C85.5318 75.4452 85.6712 75.4009 85.8113 75.3566C86.0724 75.2753 86.3427 75.1887 86.6368 75.1326L86.8232 75.0955L86.7717 75.2773C86.6904 75.5687 86.5807 75.8344 86.4782 76.0935C86.4221 76.2237 86.3685 76.3592 86.3176 76.4966L86.2892 76.5409C86.0282 76.7835 85.5477 77.2243 85.0606 77.6763C84.5497 78.1449 84.0303 78.6234 83.75 78.8845L83.748 78.8865C83.1882 79.3993 81.7502 80.733 81.2135 81.232L81.1646 81.2598C81.039 81.2948 80.9128 81.3371 80.7872 81.3741C80.5096 81.4653 80.2248 81.5565 79.9102 81.61L79.7311 81.6424L79.7773 81.4673ZM74.8464 79.1125L74.8021 79.1548C74.5688 79.3927 74.3447 79.4529 74.1187 79.4529C74.0044 79.4529 73.888 79.437 73.7691 79.4205C73.7036 79.4112 73.6336 79.4019 73.5616 79.3947L73.4757 79.3854L73.4591 79.3042C73.4287 79.1713 73.3845 79.0524 73.319 78.9195C73.247 78.7814 73.1604 78.6234 73.0606 78.4926L73.0045 78.4251L73.4453 77.8303L73.4757 77.8164C73.6805 77.7398 73.8319 77.7048 73.9932 77.6671L74.1723 77.6255L74.2165 77.6928C74.4637 78.0755 74.7347 78.5276 74.8344 79.0523L74.8464 79.1125ZM76.527 64.9884L76.3572 66.4364C76.264 67.749 76.1265 68.3015 75.4062 69.4303L75.2753 69.6325L75.196 69.4065C74.7578 68.1408 74.7552 67.5692 74.97 66.2685L75.6765 60.2484C75.7743 58.9451 75.9025 58.4276 76.6275 57.2571L76.7584 57.045L76.8377 57.2803C77.2686 58.5909 77.2732 59.1249 77.0657 60.4163L76.6625 63.8437C77.4695 64.6784 78.2527 65.564 79.0101 66.4225C80.9644 68.6372 82.9854 70.9246 85.5946 72.5055C85.7883 72.6264 85.9026 72.8432 85.9045 73.0811C85.9072 73.319 85.7948 73.5378 85.6038 73.6666L82.3866 75.8787C81.4891 76.5991 80.388 77.0214 79.3206 77.4292C79.1528 77.4926 78.9823 77.56 78.8144 77.6255L78.4371 77.7742L78.6796 77.4484C79.8732 75.8325 82.0713 74.3566 83.8412 73.1677L84.0018 73.06C80.9901 70.8102 78.0312 68.2737 76.527 64.9884ZM92.8711 70.0733L92.7614 70.4163L92.6497 70.0733C92.1461 68.4997 91.9809 67.1476 92.0622 65.2521V55.6948C91.9756 53.7808 92.1488 52.3843 92.6524 50.8755L92.7614 50.545L92.8711 50.8755C93.3774 52.389 93.5472 53.7855 93.4613 55.6994V65.2567C93.5406 67.129 93.3701 68.5255 92.8711 70.0733ZM71.3257 14.9588C71.1136 14.2199 70.8922 13.4553 70.6959 12.6952L70.5796 12.2405L70.8968 12.5875C74.7763 16.8378 75.2429 24.9239 71.9622 30.687C80.1666 32.5924 91.6683 36.6959 100.204 45.4594C100.271 45.5295 100.306 45.6207 100.302 45.7185L100.171 49.0574L99.9381 49.0686L99.4954 45.8051C89.2692 38.1274 79.8216 33.4779 71.4116 31.9929C71.3396 31.9929 71.2346 31.9955 71.1017 32.0094C70.491 32.8369 69.8169 33.546 69.0965 34.1144L68.7258 34.4085L68.9174 33.975C69.1507 33.4522 69.3906 32.9393 69.6543 32.3868C68.7892 32.7086 67.782 33.2473 67.2922 33.8864C67.0219 34.1541 66.8958 34.4296 66.8938 34.7442C66.8891 35.5974 67.7979 36.5835 68.7311 37.5206C69.9266 38.6891 71.2881 40.0136 72.3911 41.5264L75.194 45.0893L75.7393 43.6717C75.8767 43.3102 76.2851 43.1331 76.6413 43.2659L81.7779 45.236C82.9741 45.7185 84.13 46.3529 85.2496 46.9682C85.7367 47.2366 86.2238 47.5022 86.7135 47.7587L87.5066 48.1711L86.6342 47.9755C85.7135 47.7679 84.7949 47.5346 83.9391 47.3132C82.4144 47.0244 79.2969 45.8071 77.2336 44.9981L76.7934 44.8256L76.3896 45.8725C77.2269 48.2134 78.817 54.028 75.9441 58.4249C74.6157 60.3858 72.3911 61.748 69.9921 62.0672C69.6213 62.1181 69.2505 62.1419 68.8871 62.1419C67.0755 62.1419 65.3849 61.5332 64.0373 60.3792L63.5152 59.9292L64.1563 60.181C67.2923 61.4096 70.7336 61.0527 73.1399 59.2577C75.3427 57.614 76.4153 55.0445 76.1615 52.0182C76.2547 50.5028 75.8536 49.0243 75.4663 47.5975C75.2965 46.9656 75.1167 46.3061 74.9884 45.667L74.9812 45.6326L75.0466 45.4647L71.5703 42.2957C70.7825 41.6149 70.0548 40.8596 69.351 40.1299C68.8355 39.5913 68.2995 39.0342 67.7377 38.5074C67.6234 38.3838 67.509 38.2622 67.3927 38.1413C66.4648 37.1711 65.4127 36.0733 65.5065 34.5856C65.9956 32.2658 68.4508 31.0696 70.4302 30.7411C71.4513 28.5542 72.4519 26.2014 72.5967 23.5691V23.5624C72.9463 20.5917 72.1228 17.7313 71.3257 14.9588ZM62.7268 0C28.083 0 0 28.083 0 62.7268C0 97.3706 28.083 125.454 62.7268 125.454C97.3712 125.454 125.454 97.3706 125.454 62.7268C125.454 28.083 97.3712 0 62.7268 0Z" fill="url(#paint31_linear_22_54)"/>
<path d="M36.5832 59.2714C38.3319 60.7307 40.2551 61.9758 41.9318 63.0088C41.9669 62.6123 42.0019 62.1787 42.0019 61.7525V61.7406C42.44 57.9682 41.0925 54.6597 37.6393 51.0273C36.8607 52.4589 36.0095 53.8765 35.1893 55.2426C34.9718 55.6041 34.7578 55.963 34.543 56.3198C34.8139 57.5366 35.4993 58.5299 36.5832 59.2714Z" fill="url(#paint32_linear_22_54)"/>
<path d="M34.7461 53.2632C35.3687 52.2349 36.0051 51.1556 36.5907 50.0625C35.7441 50.997 35.1056 52.1119 34.7461 53.2632Z" fill="url(#paint33_linear_22_54)"/>
<path d="M36.6159 48.1007C36.6417 48.1265 36.6675 48.1497 36.6953 48.1781C37.0521 47.8933 37.4553 47.6091 37.9166 47.3057C38.9588 44.7996 39.4182 42.4798 39.3203 40.2136C39.3203 39.7192 39.3111 39.211 39.3018 38.6955L39.2926 38.0518C37.2312 39.9102 35.0913 42.074 34.965 44.4103C34.9003 45.6039 35.3543 46.7228 36.3569 47.8371C36.4362 47.9263 36.5274 48.0148 36.6159 48.1007Z" fill="url(#paint34_linear_22_54)"/>
<path d="M40.3633 30.03C40.4982 31.4939 40.5913 33.1071 40.6502 34.961C42.079 33.6716 43.5528 32.1911 45.1496 30.4351C45.0055 29.2349 44.9559 28.001 45.0075 26.7658C45.3201 24.6436 46.0054 22.5314 47.045 20.4727C46.8633 20.5989 46.6795 20.7245 46.4971 20.8481C45.8957 21.2612 45.2712 21.6874 44.681 22.1328C42.5807 23.7858 39.8432 26.4042 40.3633 30.0253V30.03Z" fill="url(#paint35_linear_22_54)"/>
<path d="M53.0273 14.9276C56.3517 12.9482 59.8981 11.0713 63.6005 9.32715C59.4275 10.5908 55.8137 12.5054 53.0273 14.9276Z" fill="url(#paint36_linear_22_54)"/>
<defs>
<linearGradient id="paint0_linear_22_54" x1="168.119" y1="51.5" x2="393.119" y2="51.5" gradientUnits="userSpaceOnUse">
<stop stop-color="#F5EAD3"/>
<stop offset="1" stop-color="#F0D4A1"/>
</linearGradient>
<linearGradient id="paint1_linear_22_54" x1="168.119" y1="51.5" x2="393.119" y2="51.5" gradientUnits="userSpaceOnUse">
<stop stop-color="#F5EAD3"/>
<stop offset="1" stop-color="#F0D4A1"/>
</linearGradient>
<linearGradient id="paint2_linear_22_54" x1="168.119" y1="51.5" x2="393.119" y2="51.5" gradientUnits="userSpaceOnUse">
<stop stop-color="#F5EAD3"/>
<stop offset="1" stop-color="#F0D4A1"/>
</linearGradient>
<linearGradient id="paint3_linear_22_54" x1="168.119" y1="51.5" x2="393.119" y2="51.5" gradientUnits="userSpaceOnUse">
<stop stop-color="#F5EAD3"/>
<stop offset="1" stop-color="#F0D4A1"/>
</linearGradient>
<linearGradient id="paint4_linear_22_54" x1="169.119" y1="99.5" x2="392.119" y2="99.5" gradientUnits="userSpaceOnUse">
<stop stop-color="#F5EAD3"/>
<stop offset="1" stop-color="#F0D4A1"/>
</linearGradient>
<linearGradient id="paint5_linear_22_54" x1="169.119" y1="99.5" x2="392.119" y2="99.5" gradientUnits="userSpaceOnUse">
<stop stop-color="#F5EAD3"/>
<stop offset="1" stop-color="#F0D4A1"/>
</linearGradient>
<linearGradient id="paint6_linear_22_54" x1="169.119" y1="99.5" x2="392.119" y2="99.5" gradientUnits="userSpaceOnUse">
<stop stop-color="#F5EAD3"/>
<stop offset="1" stop-color="#F0D4A1"/>
</linearGradient>
<linearGradient id="paint7_linear_22_54" x1="169.119" y1="99.5" x2="392.119" y2="99.5" gradientUnits="userSpaceOnUse">
<stop stop-color="#F5EAD3"/>
<stop offset="1" stop-color="#F0D4A1"/>
</linearGradient>
<linearGradient id="paint8_linear_22_54" x1="169.119" y1="99.5" x2="392.119" y2="99.5" gradientUnits="userSpaceOnUse">
<stop stop-color="#F5EAD3"/>
<stop offset="1" stop-color="#F0D4A1"/>
</linearGradient>
<linearGradient id="paint9_linear_22_54" x1="169.119" y1="99.5" x2="392.119" y2="99.5" gradientUnits="userSpaceOnUse">
<stop stop-color="#F5EAD3"/>
<stop offset="1" stop-color="#F0D4A1"/>
</linearGradient>
<linearGradient id="paint10_linear_22_54" x1="169.119" y1="99.5" x2="392.119" y2="99.5" gradientUnits="userSpaceOnUse">
<stop stop-color="#F5EAD3"/>
<stop offset="1" stop-color="#F0D4A1"/>
</linearGradient>
<linearGradient id="paint11_linear_22_54" x1="169.119" y1="99.5" x2="392.119" y2="99.5" gradientUnits="userSpaceOnUse">
<stop stop-color="#F5EAD3"/>
<stop offset="1" stop-color="#F0D4A1"/>
</linearGradient>
<linearGradient id="paint12_linear_22_54" x1="169.119" y1="99.5" x2="392.119" y2="99.5" gradientUnits="userSpaceOnUse">
<stop stop-color="#F5EAD3"/>
<stop offset="1" stop-color="#F0D4A1"/>
</linearGradient>
<linearGradient id="paint13_linear_22_54" x1="169.119" y1="99.5" x2="392.119" y2="99.5" gradientUnits="userSpaceOnUse">
<stop stop-color="#F5EAD3"/>
<stop offset="1" stop-color="#F0D4A1"/>
</linearGradient>
<linearGradient id="paint14_linear_22_54" x1="169.119" y1="99.5" x2="392.119" y2="99.5" gradientUnits="userSpaceOnUse">
<stop stop-color="#F5EAD3"/>
<stop offset="1" stop-color="#F0D4A1"/>
</linearGradient>
<linearGradient id="paint15_linear_22_54" x1="169.119" y1="99.5" x2="392.119" y2="99.5" gradientUnits="userSpaceOnUse">
<stop stop-color="#F5EAD3"/>
<stop offset="1" stop-color="#F0D4A1"/>
</linearGradient>
<linearGradient id="paint16_linear_22_54" x1="169.119" y1="99.5" x2="392.119" y2="99.5" gradientUnits="userSpaceOnUse">
<stop stop-color="#F5EAD3"/>
<stop offset="1" stop-color="#F0D4A1"/>
</linearGradient>
<linearGradient id="paint17_linear_22_54" x1="169.119" y1="99.5" x2="392.119" y2="99.5" gradientUnits="userSpaceOnUse">
<stop stop-color="#F5EAD3"/>
<stop offset="1" stop-color="#F0D4A1"/>
</linearGradient>
<linearGradient id="paint18_linear_22_54" x1="169.119" y1="99.5" x2="392.119" y2="99.5" gradientUnits="userSpaceOnUse">
<stop stop-color="#F5EAD3"/>
<stop offset="1" stop-color="#F0D4A1"/>
</linearGradient>
<linearGradient id="paint19_linear_22_54" x1="169.119" y1="99.5" x2="392.119" y2="99.5" gradientUnits="userSpaceOnUse">
<stop stop-color="#F5EAD3"/>
<stop offset="1" stop-color="#F0D4A1"/>
</linearGradient>
<linearGradient id="paint20_linear_22_54" x1="169.119" y1="99.5" x2="392.119" y2="99.5" gradientUnits="userSpaceOnUse">
<stop stop-color="#F5EAD3"/>
<stop offset="1" stop-color="#F0D4A1"/>
</linearGradient>
<linearGradient id="paint21_linear_22_54" x1="169.119" y1="99.5" x2="392.119" y2="99.5" gradientUnits="userSpaceOnUse">
<stop stop-color="#F5EAD3"/>
<stop offset="1" stop-color="#F0D4A1"/>
</linearGradient>
<linearGradient id="paint22_linear_22_54" x1="169.119" y1="99.5" x2="392.119" y2="99.5" gradientUnits="userSpaceOnUse">
<stop stop-color="#F5EAD3"/>
<stop offset="1" stop-color="#F0D4A1"/>
</linearGradient>
<linearGradient id="paint23_linear_22_54" x1="169.119" y1="99.5" x2="392.119" y2="99.5" gradientUnits="userSpaceOnUse">
<stop stop-color="#F5EAD3"/>
<stop offset="1" stop-color="#F0D4A1"/>
</linearGradient>
<linearGradient id="paint24_linear_22_54" x1="169.119" y1="99.5" x2="392.119" y2="99.5" gradientUnits="userSpaceOnUse">
<stop stop-color="#F5EAD3"/>
<stop offset="1" stop-color="#F0D4A1"/>
</linearGradient>
<linearGradient id="paint25_linear_22_54" x1="169.119" y1="99.5" x2="392.119" y2="99.5" gradientUnits="userSpaceOnUse">
<stop stop-color="#F5EAD3"/>
<stop offset="1" stop-color="#F0D4A1"/>
</linearGradient>
<linearGradient id="paint26_linear_22_54" x1="169.119" y1="99.5" x2="392.119" y2="99.5" gradientUnits="userSpaceOnUse">
<stop stop-color="#F5EAD3"/>
<stop offset="1" stop-color="#F0D4A1"/>
</linearGradient>
<linearGradient id="paint27_linear_22_54" x1="169.119" y1="99.5" x2="392.119" y2="99.5" gradientUnits="userSpaceOnUse">
<stop stop-color="#F5EAD3"/>
<stop offset="1" stop-color="#F0D4A1"/>
</linearGradient>
<linearGradient id="paint28_linear_22_54" x1="169.119" y1="99.5" x2="392.119" y2="99.5" gradientUnits="userSpaceOnUse">
<stop stop-color="#F5EAD3"/>
<stop offset="1" stop-color="#F0D4A1"/>
</linearGradient>
<linearGradient id="paint29_linear_22_54" x1="169.119" y1="99.5" x2="392.119" y2="99.5" gradientUnits="userSpaceOnUse">
<stop stop-color="#F5EAD3"/>
<stop offset="1" stop-color="#F0D4A1"/>
</linearGradient>
<linearGradient id="paint30_linear_22_54" x1="169.119" y1="99.5" x2="392.119" y2="99.5" gradientUnits="userSpaceOnUse">
<stop stop-color="#F5EAD3"/>
<stop offset="1" stop-color="#F0D4A1"/>
</linearGradient>
<linearGradient id="paint31_linear_22_54" x1="0" y1="62.7271" x2="125.454" y2="62.7271" gradientUnits="userSpaceOnUse">
<stop stop-color="#F5EAD3"/>
<stop offset="1" stop-color="#F0D4A1"/>
</linearGradient>
<linearGradient id="paint32_linear_22_54" x1="34.543" y1="57.0181" x2="42.0819" y2="57.0181" gradientUnits="userSpaceOnUse">
<stop stop-color="#F5EAD3"/>
<stop offset="1" stop-color="#F0D4A1"/>
</linearGradient>
<linearGradient id="paint33_linear_22_54" x1="34.7461" y1="51.6629" x2="36.5907" y2="51.6629" gradientUnits="userSpaceOnUse">
<stop stop-color="#F5EAD3"/>
<stop offset="1" stop-color="#F0D4A1"/>
</linearGradient>
<linearGradient id="paint34_linear_22_54" x1="34.959" y1="43.1149" x2="39.3332" y2="43.1149" gradientUnits="userSpaceOnUse">
<stop stop-color="#F5EAD3"/>
<stop offset="1" stop-color="#F0D4A1"/>
</linearGradient>
<linearGradient id="paint35_linear_22_54" x1="40.2989" y1="27.7168" x2="47.045" y2="27.7168" gradientUnits="userSpaceOnUse">
<stop stop-color="#F5EAD3"/>
<stop offset="1" stop-color="#F0D4A1"/>
</linearGradient>
<linearGradient id="paint36_linear_22_54" x1="53.0273" y1="12.1274" x2="63.6005" y2="12.1274" gradientUnits="userSpaceOnUse">
<stop stop-color="#F5EAD3"/>
<stop offset="1" stop-color="#F0D4A1"/>
</linearGradient>
</defs>
</svg>
