<svg width="236" height="75" viewBox="0 0 236 75" fill="none" xmlns="http://www.w3.org/2000/svg">
<path d="M108.164 56.5218C106.131 56.5218 104.293 56.5218 102.65 56.5218C101.024 56.5218 99.4738 56.5218 98 56.5218C98 54.4914 98 52.5449 98 50.6823C98 48.8029 98 46.7642 98 44.566V32.6102C98 31.1336 98 29.7408 98 28.432C98 27.1231 98 25.8395 98 24.581C98 23.3057 98 21.9884 98 20.6293H119.522V22.9701C117.727 22.9701 115.804 22.9701 113.754 22.9701C111.704 22.9701 109.282 22.9701 106.487 22.9701H99.1434L100.516 20.9313C100.516 22.9617 100.516 24.9166 100.516 26.7959C100.516 28.6585 100.516 30.6973 100.516 32.9122V44.2136C100.516 46.0594 100.516 47.7794 100.516 49.3735C100.516 50.9676 100.516 52.6036 100.516 54.2816H107.884C110.188 54.2816 112.162 54.0383 113.805 53.5517C115.465 53.0483 116.736 52.1841 117.616 50.9592C118.497 49.7175 118.938 47.9723 118.938 45.7238C118.938 43.9116 118.607 42.502 117.947 41.4952C117.303 40.4884 116.481 39.7585 115.482 39.3054C114.5 38.8524 113.492 38.5839 112.458 38.5C111.425 38.3993 110.519 38.349 109.739 38.349H100.16V36.1088C101.244 36.1088 102.608 36.1088 104.251 36.1088C105.911 36.1088 107.791 36.1088 109.892 36.1088C112.551 36.1088 114.737 36.4696 116.448 37.1912C118.175 37.8959 119.454 38.9698 120.284 40.4129C121.131 41.8392 121.555 43.6431 121.555 45.8245C121.555 47.8717 121.157 49.7091 120.361 51.3367C119.565 52.9476 118.192 54.2145 116.244 55.1374C114.296 56.0603 111.603 56.5218 108.164 56.5218Z" fill="url(#paint0_linear_302_3)"/>
<path d="M129.216 56.5218C129.216 54.4914 129.216 52.5449 129.216 50.6823C129.216 48.8029 129.216 46.7726 129.216 44.5912V32.6102C129.216 30.3952 129.216 28.3481 129.216 26.4687C129.216 24.5893 129.216 22.6429 129.216 20.6293H131.732C131.732 22.6596 131.732 24.6145 131.732 26.4939C131.732 28.3565 131.732 30.3952 131.732 32.6102V51.966H131.986L140.956 39.6075C143.158 36.5871 145.403 33.4995 147.689 30.3449C149.976 27.1902 152.323 23.9517 154.728 20.6293H157.015C157.015 22.6429 157.015 24.5893 157.015 26.4687C157.015 28.3481 157.015 30.3952 157.015 32.6102V44.5912C157.015 46.7726 157.015 48.8029 157.015 50.6823C157.015 52.5449 157.015 54.4914 157.015 56.5218H154.499C154.499 54.4914 154.499 52.5449 154.499 50.6823C154.499 48.8029 154.499 46.7642 154.499 44.566V25.1347H154.245L145.301 37.468C142.574 41.21 140.092 44.6247 137.856 47.7122C135.62 50.7998 133.494 53.7363 131.478 56.5218H129.216Z" fill="url(#paint1_linear_302_3)"/>
<path d="M183.282 57C180.317 57 177.708 56.5218 175.455 55.5653C173.202 54.5921 171.314 53.2497 169.789 51.5381C168.281 49.8097 167.138 47.8381 166.359 45.6231C165.596 43.3914 165.215 41.0254 165.215 38.5252C165.215 35.0349 165.935 31.8971 167.375 29.1116C168.815 26.3093 170.873 24.0943 173.55 22.4667C176.243 20.8222 179.453 20 183.18 20C186.026 20 188.55 20.4782 190.752 21.4347C192.954 22.3912 194.818 23.7168 196.342 25.4116C197.884 27.1063 199.044 29.0696 199.823 31.3014C200.62 33.5331 201.018 35.9327 201.018 38.5C201.018 42.0406 200.298 45.2036 198.858 47.9891C197.435 50.7746 195.394 52.9728 192.734 54.5837C190.091 56.1946 186.941 57 183.282 57ZM183.18 54.634C185.84 54.634 188.126 54.1977 190.041 53.3252C191.955 52.4358 193.522 51.2277 194.741 49.7007C195.978 48.1737 196.893 46.4537 197.486 44.5408C198.079 42.6111 198.375 40.5975 198.375 38.5C198.375 36.2515 198.053 34.154 197.41 32.2075C196.783 30.2442 195.834 28.5327 194.564 27.0728C193.293 25.5961 191.709 24.4467 189.812 23.6245C187.915 22.7855 185.704 22.366 183.18 22.366C180.571 22.366 178.301 22.8023 176.37 23.6748C174.456 24.5474 172.864 25.7472 171.593 27.2741C170.339 28.7844 169.399 30.5043 168.773 32.434C168.163 34.3637 167.858 36.3857 167.858 38.5C167.858 40.6311 168.154 42.6698 168.747 44.6163C169.357 46.546 170.28 48.266 171.517 49.7762C172.77 51.2864 174.363 52.4778 176.294 53.3503C178.225 54.2061 180.52 54.634 183.18 54.634Z" fill="url(#paint2_linear_302_3)"/>
<path d="M225.074 57C222.245 57 219.695 56.5302 217.425 55.5905C215.172 54.6508 213.258 53.3419 211.683 51.6639C210.107 49.9859 208.896 48.0227 208.049 45.7741C207.219 43.5088 206.804 41.0757 206.804 38.4748C206.804 34.8336 207.558 31.6286 209.066 28.8599C210.59 26.0744 212.674 23.9014 215.316 22.3408C217.959 20.7803 220.974 20 224.362 20C225.582 20 226.759 20.0923 227.894 20.2769C229.029 20.4615 230.096 20.7048 231.096 21.0068C232.095 21.3088 233.01 21.6361 233.84 21.9884C234.687 22.324 235.407 22.6596 236 22.9952L235.695 25.5626C234.374 24.8075 233.078 24.2034 231.807 23.7503C230.554 23.2805 229.309 22.9365 228.072 22.7184C226.852 22.5002 225.65 22.3912 224.464 22.3912C221.533 22.3912 218.933 23.054 216.663 24.3796C214.41 25.7052 212.64 27.5762 211.352 29.9925C210.082 32.4088 209.447 35.2531 209.447 38.5252C209.447 40.7569 209.777 42.846 210.438 44.7925C211.098 46.739 212.089 48.4506 213.411 49.9272C214.732 51.3871 216.375 52.5365 218.34 53.3755C220.305 54.2145 222.575 54.634 225.15 54.634C226.048 54.634 226.937 54.5837 227.818 54.483C228.716 54.3655 229.597 54.1977 230.461 53.9796C231.342 53.7447 232.197 53.4426 233.027 53.0735C233.857 52.6875 234.653 52.2261 235.416 51.6891L235.746 54.2565C235.034 54.7263 234.255 55.1374 233.408 55.4898C232.561 55.8422 231.68 56.1274 230.766 56.3456C229.851 56.5637 228.911 56.7231 227.945 56.8238C226.996 56.9413 226.039 57 225.074 57Z" fill="url(#paint3_linear_302_3)"/>
<path d="M59.4248 37.3984L59.3843 37.6563L59.3194 37.9394C58.9172 39.6803 58.4607 41.6525 57.0461 42.9134L56.8892 43.0522L56.932 42.8481C57.107 41.991 57.4165 41.1685 57.716 40.3751C58.0613 39.4539 58.419 38.5051 58.5661 37.5037C58.7965 36.5259 58.8213 35.5233 58.8464 34.5537C58.8684 33.6923 58.8908 32.8006 59.0556 31.9265L59.0945 31.7186L59.1861 31.91C60.0086 33.6231 59.698 35.6299 59.4248 37.3984ZM56.2593 45.69C56.1445 45.8579 56.0183 46.0077 55.8949 46.1536C55.828 46.231 55.7616 46.3101 55.6963 46.3907L55.6755 46.4087C55.462 46.5251 55.0723 46.7347 54.6713 46.9537C54.2207 47.1966 53.7517 47.4502 53.5008 47.5875L52.0528 48.3726C51.4213 48.7528 51.1606 48.8499 50.405 48.8621L50.2717 48.8649L50.3464 48.754C50.7808 48.112 50.9955 47.9606 51.6572 47.6401L53.1041 46.8554C53.3537 46.7221 53.8071 46.4752 54.2498 46.2354C54.6575 46.0132 55.0582 45.7969 55.2788 45.6778L55.3051 45.6692C55.4077 45.6597 55.5091 45.6456 55.6102 45.6334C55.7989 45.6098 55.9959 45.5846 56.2011 45.5807L56.3356 45.578L56.2593 45.69ZM38.6136 52.8332L38.5303 52.8804C38.4748 52.9138 38.4183 52.9527 38.3624 52.9917C38.2169 53.0899 38.0699 53.1942 37.9217 53.1942C37.8812 53.1942 37.8395 53.1855 37.7994 53.1678L37.4137 53.1273C36.9132 53.0762 36.2043 53.0011 35.8854 52.9708C35.3597 52.8013 35.1891 52.7251 34.9784 52.1813L34.9532 52.1165L35.0196 52.0928C35.4969 51.9179 35.6511 51.947 36.045 52.1495C36.4264 52.19 37.1904 52.269 37.6594 52.3162L37.8855 52.3382C38.0809 52.3008 38.2461 52.4644 38.4014 52.628C38.4485 52.6779 38.4957 52.7278 38.5417 52.7695L38.6136 52.8332ZM54.7047 60.2261L54.6186 60.6255C53.8932 63.9671 53.1442 67.4223 50.7419 69.9327L50.4407 70.2477L50.6295 69.8549C53.5979 63.6522 54.7656 57.6767 54.1 52.0928C50.1789 53.7489 46.8554 56.1567 44.4849 59.0583C44.3489 59.2262 44.1047 59.2608 43.9258 59.1401C41.5597 57.4632 38.4513 56.5908 34.8742 56.5908C34.4358 56.5908 33.9919 56.6045 33.5385 56.6297C33.4776 59.8738 34.3705 63.1529 35.2347 66.325C35.5524 67.4915 35.8799 68.6982 36.1504 69.869L36.2487 70.2949L36.0227 69.9202C34.9049 68.0656 34.1197 65.9534 33.6884 63.6396L33.5775 63.1127C32.9783 60.2846 32.3582 57.3622 32.867 54.4869C32.3248 54.4963 31.9962 54.481 31.8353 54.4452L31.8129 54.4354C31.6674 54.3438 31.5106 54.2494 31.347 54.1539C30.6145 53.721 29.7853 53.2288 29.3831 52.5226L29.319 52.4133L29.4468 52.42C30.2583 52.4601 31.0749 52.9802 31.7948 53.4395C31.9155 53.5173 32.0335 53.592 32.1471 53.6628C32.3012 53.6601 32.4845 53.6545 32.6897 53.649L33.0365 53.6408C33.0392 53.6266 33.042 53.6117 33.0447 53.5991C33.2181 53.1151 33.3915 52.6421 33.5649 52.1719C34.4928 49.6556 35.3707 47.2784 35.5996 44.6139L33.7992 42.3751C33.2279 41.7244 32.9075 41.2558 32.6299 40.3586L32.5788 40.1919L32.7298 40.2764C33.5484 40.7399 33.938 41.1547 34.4511 41.8566L37.3044 45.4057C37.8729 46.0549 38.178 46.5004 38.4737 47.4212L38.5291 47.593L38.3722 47.5018C37.5387 47.0174 37.1684 46.6238 36.6537 45.9232L35.931 45.026C36.0852 46.3034 35.9452 47.6401 35.497 49.1967C35.508 49.1924 35.5206 49.1869 35.5331 49.1826C35.5776 49.1688 35.6939 49.1079 35.8158 49.0442C36.2086 48.8374 36.4929 48.6931 36.6207 48.7387C36.8939 48.7764 37.4082 48.8511 37.9173 48.9235C38.4068 48.9927 38.8912 49.0607 39.1586 49.1008C39.3155 49.0925 39.4653 49.1842 39.5997 49.2907C39.8427 49.4366 39.9591 49.5254 39.9438 49.6335C39.9272 49.7417 39.7928 49.7959 39.5179 49.8651C39.2875 49.9886 38.9007 49.9178 38.5582 49.8569C38.4194 49.8317 38.2877 49.8069 38.1961 49.8026C38.189 49.8026 37.0032 49.632 36.6163 49.5765C36.4972 49.6335 36.3914 49.6874 36.2931 49.7373C35.9354 49.9205 35.6731 50.055 35.2308 50.055H35.228C35.1431 50.3074 35.0574 50.5571 34.9685 50.8013C35.0963 50.7529 35.2127 50.7277 35.3346 50.725L36.3914 50.5504C36.4319 50.5461 36.4764 50.5461 36.5247 50.5504C36.9839 50.6251 38.1713 50.8111 38.6164 50.8803C38.8244 50.9581 39.0033 51.1091 39.1767 51.255C39.2156 51.2869 39.2545 51.3187 39.2919 51.3505L39.3847 51.4256L39.2738 51.4701C39.2266 51.4866 39.1794 51.5058 39.1338 51.5255C38.9243 51.61 38.7064 51.6989 38.5 51.7072C38.1741 51.6545 37.486 51.5463 36.9493 51.4614L36.4567 51.3824C36.3305 51.3977 36.1433 51.4323 35.9464 51.4713C35.5276 51.5491 35.0932 51.6364 34.8966 51.5947L34.7936 51.5585C34.7633 51.5463 34.7342 51.5349 34.7035 51.5255L34.5109 52.0331C34.3123 52.5544 34.1071 53.09 33.9199 53.6172L35.8563 53.5672C36.1768 53.5382 36.4956 53.653 36.805 53.7643C36.9242 53.8055 37.0464 53.8488 37.164 53.8834L37.3763 53.9431L37.1683 54.0139C37.0547 54.054 36.9407 54.1012 36.8204 54.1511C36.5275 54.273 36.224 54.4008 35.913 54.4008C35.8603 54.4008 35.8036 54.398 35.7285 54.398C35.4458 54.398 34.9906 54.4161 34.4763 54.4354C34.2349 54.4464 33.9837 54.4562 33.7356 54.4661C33.6565 54.943 33.605 55.3523 33.5747 55.7407L33.6093 55.7352C39.4779 55.4592 45.2756 53.502 50.6668 51.4284L50.7281 51.553C47.2033 53.7253 43.0243 55.2316 38.3003 56.0317C40.4655 56.4021 42.407 57.1483 44.08 58.2539C46.7638 55.0067 50.309 52.753 54.0737 51.8986C53.9915 51.2412 53.8932 50.5422 53.7446 49.8486L53.6478 49.3992L53.8723 49.7987C55.6062 52.882 55.2969 56.6325 54.7047 60.2261ZM45.044 71.1087L44.9509 71.3254L44.6709 69.6512L44.7248 68.2268C44.8235 65.7856 44.5239 63.3054 44.2172 61.2015L44.216 61.1929L44.2172 61.1834C44.2341 61.0281 44.249 60.8713 44.2632 60.7144C44.2935 60.3884 44.3253 60.0542 44.3808 59.7157L44.4169 59.5022L44.5128 59.6965C44.9178 60.5245 45.1313 61.3651 45.2268 62.508C45.2532 62.727 45.2827 62.946 45.3118 63.1666C45.4058 63.8865 45.5044 64.63 45.5225 65.3692C45.5253 65.7423 45.5378 66.128 45.5516 66.5027C45.6043 68.0628 45.6597 69.676 45.044 71.1087ZM28.9487 50.1604C28.0514 49.7346 27.3551 49.2258 26.5436 48.4088L22.2482 44.4279C21.3675 43.6805 20.7903 43.0035 20.3216 42.1656L20.2174 41.9784L20.4116 42.0685C21.2813 42.4707 22.0013 42.9936 22.8155 43.8189L27.111 47.8014C27.9862 48.546 28.5437 49.2022 29.0391 50.0648L29.1484 50.2575L28.9487 50.1604ZM26.4189 52.549L19.56 48.3227C17.1106 46.8609 15.3975 45.5446 15.0051 43.8677C14.6748 42.4558 15.2406 40.758 16.8982 38.1906L16.9108 38.1989C16.9855 38.0365 17.3504 37.4066 18.9082 34.7047C19.1205 34.2997 19.3658 33.8629 19.678 33.3357C19.5085 31.9572 20.0593 30.4219 21.1536 29.2207C21.1677 29.2081 21.1815 29.1971 21.1941 29.1857C21.176 29.1692 21.1591 29.1539 21.1414 29.1358C21.097 29.0945 21.0525 29.0513 21.0065 29.0112C20.2591 28.1871 19.9068 27.3174 19.9552 26.4213C20.0566 24.5974 21.7626 22.9374 23.362 21.5212C23.3396 20.5099 23.2995 19.1952 23.1827 17.9299C22.7404 15.2336 25.276 13.1033 26.0639 12.5167C26.9057 11.8786 27.8462 11.2196 29.0182 10.4443C31.4013 7.07673 35.1738 4.93356 38.938 4.78809C35.3236 3.49101 31.268 4.55768 28.9667 7.44555L28.8547 7.36376C31.3596 3.70056 36.6733 2.39678 40.4612 4.51206C40.6027 4.58283 40.6888 4.72987 40.6818 4.89736C40.6747 5.06407 40.5776 5.20405 40.4294 5.26381C36.4473 6.99732 32.7896 8.95454 29.562 11.0781C28.5299 12.5552 27.8698 14.2282 27.5965 16.0521C27.4176 16.6261 27.2981 17.2159 27.2124 17.7039C29.5231 15.0991 31.5357 12.2364 33.0377 10.02L33.4014 9.48456L33.1599 10.0849C31.6159 13.9258 28.8559 17.6374 24.7224 21.4312C24.5604 21.5837 24.3827 21.7429 24.1995 21.9069L24.2038 22.1912C24.2148 22.7707 24.2247 23.3687 24.2247 23.9317C24.3147 25.6739 23.857 27.4813 22.786 29.6104C23.4505 30.2469 24.2648 31.036 24.8014 32.0237C25.5866 33.4053 25.9471 35.1002 25.817 36.7936C25.7628 37.1514 25.6908 37.5096 25.5949 37.8922C25.9224 38.0907 26.2511 38.2861 26.5798 38.4804C27.5438 39.0532 28.5382 39.6453 29.4814 40.2807L29.77 40.475L29.4303 40.4057C28.0998 40.138 26.796 39.6135 25.3326 38.7548C25.0362 39.6509 24.6517 40.5068 24.1912 41.3014L24.0666 41.2432C24.4161 40.2752 24.6697 39.3347 24.8223 38.4442C23.6502 37.7133 22.5242 36.8688 21.4323 36.0518L21.2342 35.9031C20.6877 35.5178 20.2717 35.0334 19.9984 34.4649L19.954 34.54C19.8415 34.7338 19.7307 34.9296 19.628 35.1211C19.2852 35.7549 18.8539 36.4831 18.399 37.2529C17.4404 38.87 16.3545 40.7038 15.8497 42.109C15.1522 44.3045 17.0579 45.6417 18.7387 46.8235C19.1814 47.1341 19.6002 47.4267 19.9678 47.729L26.4952 52.4326L26.4189 52.549ZM37.4679 34.2651C37.6457 32.6771 38.9758 31.6049 39.9618 30.9389C40.0936 30.8544 40.228 30.7741 40.3625 30.6924C41.2837 30.1345 42.2352 29.5561 42.3657 28.4686C42.3197 28.3286 42.2045 27.8336 42.2407 27.674L42.238 27.5368C42.2309 27.2938 42.2242 27.0429 42.2336 26.7905L42.2423 26.5684L42.3614 26.7543C42.4239 26.853 42.4904 26.9513 42.5556 27.0473C42.8179 27.4353 43.0911 27.8375 43.1922 28.3149C43.2437 29.1971 42.6818 30.0083 42.1397 30.4785C41.7205 30.8253 41.2794 31.1028 40.8536 31.3706C40.1659 31.8058 39.5152 32.2151 38.9911 32.878C38.6565 33.3553 38.2433 33.7285 37.8049 34.1252C37.7314 34.1905 37.6578 34.2569 37.5831 34.3249L37.4471 34.4496L37.4679 34.2651ZM35.9715 33.548C35.7576 32.6575 35.1754 32.0543 34.5581 31.4178C34.2986 31.1512 34.0308 30.8752 33.7937 30.5756L33.7065 30.4659L33.8464 30.4631H33.8893C34.9587 30.4631 35.6912 31.2428 36.139 31.9612C36.2515 31.4355 36.4095 30.9531 36.6065 30.5229C37.1141 29.8919 37.2765 29.8585 37.3751 29.9072C37.5552 30.0043 37.4499 30.4521 37.1448 31.4217C37.1141 31.5188 37.0866 31.6089 37.0614 31.691C36.8967 32.2568 36.8035 32.8478 36.787 33.4426C36.7854 33.6825 36.5982 33.8157 36.4237 33.8381C36.4056 33.8409 36.3859 33.8421 36.3667 33.8421C36.2043 33.8421 36.0242 33.7548 35.9715 33.548ZM32.7341 32.7534C34.3957 33.1985 35.7022 34.0906 36.1461 35.0849L36.2086 35.2249L36.0627 35.1793C35.4804 35.0016 34.952 34.709 34.4413 34.4232C33.848 34.0933 33.2346 33.752 32.5411 33.6022C31.8589 33.3773 31.1583 33.3652 30.4789 33.3526C29.8946 33.3428 29.2899 33.3318 28.6962 33.1902L28.5508 33.154L28.6726 33.0667C29.5384 32.4341 31.0973 32.315 32.7341 32.7534ZM35.3471 21.5074C35.4596 21.8719 35.3928 22.1467 35.2862 22.4963L35.2638 22.5698L35.193 22.5391C34.8632 22.4035 34.641 22.1577 34.5384 21.8054C34.3277 21.0954 34.6509 20.0841 35.0613 19.492C35.1156 19.3933 35.1891 19.3033 35.2819 19.2227C34.5648 18.9066 33.8838 18.3144 33.307 17.7719L33.2956 17.7581C33.0557 17.363 32.8131 16.9301 32.6633 16.4528L32.5965 16.2409L32.8395 16.4319C33.1875 16.7052 33.5177 16.9635 33.8783 17.1699L33.8936 17.1825C34.7908 18.1257 35.5485 18.5889 36.2003 18.5889C36.2625 18.5889 36.3238 18.5861 36.3832 18.5779C37.3763 18.4407 38.038 17.1837 38.7399 15.8536C39.0532 15.2587 39.3764 14.6442 39.744 14.1032L39.8632 13.927L39.8702 14.1393C39.9312 15.9495 38.9852 17.8025 37.339 19.0953C36.9588 19.3713 36.5444 19.4794 36.0655 19.4366C36.0643 19.4405 36.0643 19.4448 36.0627 19.4488C36.0478 19.5058 36.0309 19.5655 36.0254 19.6182L36.0227 19.643L36.0046 19.6611C35.5041 20.1494 35.2583 20.8402 35.3471 21.5074ZM26.4492 27.1829C26.5464 28.1623 26.9682 29.0304 27.3744 29.871C27.6146 30.3692 27.8627 30.8823 28.0471 31.4178L28.1069 31.5912L27.9488 31.5008C26.7642 30.8335 25.8599 29.2121 25.5909 27.269C25.3244 25.355 25.7463 23.5767 26.6895 22.6264L26.8168 22.4974L26.8074 22.6795C26.7795 23.2453 26.6824 23.8055 26.5896 24.3493C26.4229 25.3106 26.2648 26.2188 26.4492 27.1829ZM32.2749 48.6416C32.4318 48.5213 32.7105 48.3019 32.9893 48.084C33.2861 47.8525 33.5842 47.6197 33.7438 47.4962L33.7591 47.4837L33.7772 47.4821C33.8574 47.4699 33.9364 47.4557 34.0155 47.4404C34.1641 47.4129 34.3179 47.3838 34.4857 47.3728L34.5871 47.3669L34.5553 47.464C34.5054 47.6225 34.4385 47.7652 34.3764 47.9012C34.343 47.9748 34.3084 48.0483 34.2777 48.1245L34.2557 48.1521C34.1126 48.2645 33.8519 48.467 33.5842 48.6766C33.2763 48.9164 32.9574 49.1645 32.7868 49.2978C32.4636 49.5474 31.6301 50.1993 31.3191 50.445L31.3053 50.4573L31.2872 50.46C31.2153 50.4714 31.1445 50.4852 31.0738 50.4978C30.9157 50.5269 30.7533 50.5571 30.5756 50.5658L30.4757 50.5713L30.5052 50.4769C30.5579 50.3075 30.6271 50.1565 30.6936 50.0122C30.7242 49.9469 30.7549 49.8805 30.784 49.8124L30.7895 49.7959L30.8048 49.7845C31.1139 49.5463 31.956 48.8913 32.2749 48.6416ZM28.2319 37.4679C26.6187 35.8504 26.036 33.7615 26.6725 31.8821L26.7587 31.6285L26.8074 31.8919C27.0319 33.1332 27.2635 34.1668 27.6563 35.1765C28.6813 37.4955 31.6368 39.3862 34.404 38.4969C34.8966 38.4458 35.4164 38.2944 36.0561 38.0156L36.3211 37.9004L36.1363 38.1237C35.773 38.5649 35.2807 38.9545 34.6733 39.2836L34.6619 39.2891C34.1252 39.4692 33.5606 39.5569 32.9865 39.5569C31.3191 39.5569 29.5769 38.8146 28.2319 37.4679ZM50.861 41.8341L50.839 41.8232L50.8292 41.7995C50.8084 41.7508 50.7863 41.7024 50.7655 41.6541C50.7156 41.5416 50.6629 41.4264 50.624 41.2865L50.6074 41.2212L50.6695 41.2003C50.8056 41.1587 50.9279 41.1378 51.0454 41.1197C51.1013 41.1103 51.1567 41.1017 51.2122 41.0906L51.2369 41.0852L51.2593 41.0977C51.4893 41.2251 52.1204 41.5691 52.3606 41.6981C52.4825 41.7634 52.7019 41.8829 52.9193 41.9993C53.1344 42.1157 53.3494 42.2324 53.4658 42.2961L53.4867 42.3087L53.4965 42.3323C53.5185 42.3889 53.5437 42.4416 53.5673 42.4959C53.6144 42.6012 53.6628 42.7109 53.7017 42.8426L53.7214 42.9079L53.6545 42.9272C53.5283 42.9661 53.412 42.9842 53.2983 43.0034C53.2386 43.0133 53.1776 43.0227 53.1163 43.0341L53.0915 43.0396L53.0679 43.0286C52.968 42.9743 52.7919 42.8788 52.6059 42.7774C52.3633 42.6457 52.1011 42.5041 51.9651 42.4306C51.7241 42.2973 51.0954 41.9592 50.861 41.8341ZM47.4601 48.4654C47.5088 48.2798 47.5765 48.1131 47.6417 47.9511C47.6708 47.8816 47.6999 47.8096 47.7278 47.7373L47.7459 47.7109C48.0648 47.42 48.9306 46.621 49.2577 46.3183C49.4047 46.1838 49.6516 45.955 49.9111 45.7152C50.241 45.4101 50.5893 45.0881 50.7694 44.9233L50.7973 44.908C50.8834 44.8828 50.9664 44.8565 51.0497 44.8301C51.2051 44.7818 51.3659 44.7303 51.5408 44.6969L51.6517 44.6748L51.621 44.7829C51.5727 44.9563 51.5074 45.1144 51.4465 45.2685C51.4131 45.346 51.3812 45.4266 51.3509 45.5084L51.334 45.5347C51.1787 45.679 50.8929 45.9412 50.6031 46.2102C50.2992 46.4889 49.9902 46.7736 49.8235 46.9289L49.8223 46.9301C49.4892 47.2352 48.6337 48.0286 48.3145 48.3255L48.2854 48.342C48.2107 48.3628 48.1356 48.388 48.0609 48.41C47.8957 48.4642 47.7263 48.5185 47.5391 48.5504L47.4325 48.5696L47.4601 48.4654ZM44.5266 47.0645L44.5003 47.0897C44.3615 47.2312 44.2282 47.2671 44.0937 47.2671C44.0257 47.2671 43.9565 47.2576 43.8857 47.2478C43.8468 47.2423 43.8051 47.2367 43.7623 47.2324L43.7112 47.2269L43.7013 47.1786C43.6833 47.0996 43.6569 47.0288 43.618 46.9497C43.5751 46.8676 43.5236 46.7736 43.4642 46.6958L43.4308 46.6556L43.6931 46.3018L43.7112 46.2935C43.8331 46.2479 43.9231 46.2271 44.019 46.2047L44.1256 46.1799L44.1519 46.22C44.299 46.4476 44.4601 46.7166 44.5195 47.0288L44.5266 47.0645ZM45.5265 38.662L45.4254 39.5235C45.37 40.3043 45.2882 40.633 44.8596 41.3045L44.7818 41.4248L44.7346 41.2904C44.4739 40.5374 44.4724 40.1974 44.6002 39.4236L45.0204 35.8422C45.0786 35.0668 45.1549 34.759 45.5862 34.0626L45.6641 33.9364L45.7113 34.0764C45.9676 34.8561 45.9704 35.1738 45.8469 35.9421L45.607 37.981C46.0871 38.4776 46.553 39.0045 47.0036 39.5152C48.1662 40.8327 49.3686 42.1935 50.9208 43.134C51.036 43.2059 51.104 43.3349 51.1052 43.4764C51.1068 43.618 51.0399 43.7481 50.9263 43.8248L49.0123 45.1408C48.4784 45.5693 47.8234 45.8206 47.1884 46.0631C47.0885 46.1009 46.9871 46.141 46.8872 46.1799L46.6627 46.2684L46.807 46.0746C47.5171 45.1132 48.8248 44.2353 49.8777 43.5279L49.9732 43.4639C48.1815 42.1255 46.4213 40.6165 45.5265 38.662ZM55.2496 41.6871L55.1844 41.8912L55.118 41.6871C54.8184 40.7509 54.72 39.9465 54.7684 38.8189V33.1332C54.7169 31.9946 54.8199 31.1638 55.1195 30.2662L55.1844 30.0696L55.2496 30.2662C55.5508 31.1665 55.6519 31.9973 55.6007 33.136V38.8216C55.6479 39.9355 55.5465 40.7663 55.2496 41.6871ZM42.4322 8.8991C42.306 8.45953 42.1742 8.00463 42.0575 7.55248L41.9883 7.28198L42.177 7.4884C44.4849 10.0169 44.7625 14.8274 42.8108 18.2559C47.6917 19.3894 54.5341 21.8306 59.6119 27.0441C59.652 27.0858 59.6728 27.14 59.6701 27.1982L59.5927 29.1846L59.4538 29.1912L59.1905 27.2498C53.1069 22.6822 47.4864 19.9163 42.4833 19.0328C42.4404 19.0328 42.3779 19.0344 42.2989 19.0426C41.9356 19.5349 41.5346 19.9567 41.106 20.2949L40.8854 20.4698L40.9995 20.2119C41.1382 19.9009 41.2809 19.5958 41.4378 19.2671C40.9232 19.4586 40.3239 19.7791 40.0326 20.1593C39.8718 20.3185 39.7967 20.4824 39.7956 20.6696C39.7928 21.1772 40.3334 21.7638 40.8886 22.3213C41.5998 23.0164 42.4098 23.8044 43.066 24.7043L44.7334 26.8239L45.0578 25.9806C45.1396 25.7655 45.3825 25.6601 45.5945 25.7392L48.6502 26.9112C49.3619 27.1982 50.0495 27.5757 50.7155 27.9417C51.0053 28.1014 51.2951 28.2594 51.5864 28.412L52.0583 28.6573L51.5393 28.5409C50.9916 28.4175 50.4451 28.2787 49.9359 28.1469C49.0289 27.9751 47.1743 27.2509 45.9468 26.7697L45.6849 26.6671L45.4447 27.2898C45.9428 28.6825 46.8888 32.1416 45.1797 34.7574C44.3894 35.9239 43.066 36.7343 41.6387 36.9242C41.4182 36.9545 41.1976 36.9686 40.9814 36.9686C39.9037 36.9686 38.8979 36.6065 38.0962 35.92L37.7856 35.6523L38.167 35.8021C40.0326 36.533 42.0799 36.3207 43.5114 35.2528C44.8219 34.275 45.46 32.7463 45.309 30.946C45.3645 30.0444 45.1258 29.1649 44.8954 28.316C44.7944 27.9402 44.6874 27.5478 44.6111 27.1676L44.6068 27.1471L44.6457 27.0473L42.5776 25.162C42.109 24.757 41.6761 24.3076 41.2574 23.8736C40.9507 23.5531 40.6318 23.2217 40.2976 22.9083C40.2296 22.8348 40.1616 22.7625 40.0924 22.6905C39.5404 22.1133 38.9144 21.4602 38.9703 20.5752C39.2612 19.1952 40.7219 18.4835 41.8994 18.2881C42.5069 16.9871 43.1021 15.5874 43.1883 14.0214V14.0174C43.3962 12.2501 42.9063 10.5485 42.4322 8.8991ZM37.3166 0C16.7068 0 0 16.7068 0 37.3166C0 57.9264 16.7068 74.6336 37.3166 74.6336C57.9268 74.6336 74.6335 57.9264 74.6335 37.3166C74.6335 16.7068 57.9268 0 37.3166 0Z" fill="url(#paint4_linear_302_3)"/>
<path d="M21.7933 35.261C22.952 36.1292 24.2264 36.8699 25.3374 37.4844C25.3606 37.2485 25.3838 36.9906 25.3838 36.737V36.7299C25.6741 34.4857 24.7812 32.5175 22.4931 30.3566C21.9772 31.2082 21.4131 32.0516 20.8697 32.8642C20.7256 33.0793 20.5837 33.2928 20.4414 33.5051C20.621 34.2289 21.0751 34.8199 21.7933 35.261Z" fill="url(#paint5_linear_302_3)"/>
<path d="M27.5742 31.6864C27.9867 31.0746 28.4085 30.4325 28.7965 29.7822C28.2355 30.3382 27.8124 31.0014 27.5742 31.6864Z" fill="url(#paint6_linear_302_3)"/>
<path d="M21.8167 28.6156C21.8337 28.6309 21.8508 28.6447 21.8692 28.6616C22.1057 28.4922 22.3728 28.3231 22.6785 28.1426C23.3691 26.6517 23.6735 25.2717 23.6086 23.9235C23.6086 23.6294 23.6025 23.327 23.5964 23.0204L23.5903 22.6374C22.2244 23.743 20.8064 25.0302 20.7228 26.4201C20.6798 27.1302 20.9807 27.7959 21.645 28.4588C21.6976 28.5118 21.758 28.5645 21.8167 28.6156Z" fill="url(#paint7_linear_302_3)"/>
<path d="M24.2966 17.8651C24.3859 18.7359 24.4477 19.6957 24.4866 20.7985C25.4334 20.0315 26.41 19.1507 27.468 18.1061C27.3726 17.3921 27.3397 16.658 27.3739 15.9232C27.581 14.6607 28.0351 13.4041 28.724 12.1794C28.6035 12.2544 28.4818 12.3292 28.3609 12.4027C27.9624 12.6484 27.5486 12.902 27.1575 13.167C25.7658 14.1503 23.952 15.7081 24.2966 17.8623V17.8651Z" fill="url(#paint8_linear_302_3)"/>
<path d="M39.6875 8.88026C41.8902 7.7027 44.2402 6.58608 46.6934 5.54849C43.9284 6.30024 41.5338 7.43928 39.6875 8.88026Z" fill="url(#paint9_linear_302_3)"/>
<defs>
<linearGradient id="paint0_linear_302_3" x1="98" y1="38.5" x2="236" y2="38.5" gradientUnits="userSpaceOnUse">
<stop stop-color="#F4DAA5"/>
<stop offset="1" stop-color="#DAAC70"/>
</linearGradient>
<linearGradient id="paint1_linear_302_3" x1="98" y1="38.5" x2="236" y2="38.5" gradientUnits="userSpaceOnUse">
<stop stop-color="#F4DAA5"/>
<stop offset="1" stop-color="#DAAC70"/>
</linearGradient>
<linearGradient id="paint2_linear_302_3" x1="98" y1="38.5" x2="236" y2="38.5" gradientUnits="userSpaceOnUse">
<stop stop-color="#F4DAA5"/>
<stop offset="1" stop-color="#DAAC70"/>
</linearGradient>
<linearGradient id="paint3_linear_302_3" x1="98" y1="38.5" x2="236" y2="38.5" gradientUnits="userSpaceOnUse">
<stop stop-color="#F4DAA5"/>
<stop offset="1" stop-color="#DAAC70"/>
</linearGradient>
<linearGradient id="paint4_linear_302_3" x1="0" y1="37.3168" x2="74.6335" y2="37.3168" gradientUnits="userSpaceOnUse">
<stop stop-color="#F7DFAA"/>
<stop offset="1" stop-color="#D9AA6F"/>
</linearGradient>
<linearGradient id="paint5_linear_302_3" x1="20.4414" y1="33.9205" x2="25.4368" y2="33.9205" gradientUnits="userSpaceOnUse">
<stop stop-color="#F7DFAA"/>
<stop offset="1" stop-color="#D9AA6F"/>
</linearGradient>
<linearGradient id="paint6_linear_302_3" x1="27.5742" y1="30.7343" x2="28.7965" y2="30.7343" gradientUnits="userSpaceOnUse">
<stop stop-color="#F7DFAA"/>
<stop offset="1" stop-color="#D9AA6F"/>
</linearGradient>
<linearGradient id="paint7_linear_302_3" x1="20.7188" y1="25.6495" x2="23.6172" y2="25.6495" gradientUnits="userSpaceOnUse">
<stop stop-color="#F7DFAA"/>
<stop offset="1" stop-color="#D9AA6F"/>
</linearGradient>
<linearGradient id="paint8_linear_302_3" x1="24.2539" y1="16.489" x2="28.724" y2="16.489" gradientUnits="userSpaceOnUse">
<stop stop-color="#F7DFAA"/>
<stop offset="1" stop-color="#D9AA6F"/>
</linearGradient>
<linearGradient id="paint9_linear_302_3" x1="39.6875" y1="7.21438" x2="46.6934" y2="7.21438" gradientUnits="userSpaceOnUse">
<stop stop-color="#F7DFAA"/>
<stop offset="1" stop-color="#D9AA6F"/>
</linearGradient>
</defs>
</svg>
