<svg width="120" height="38" viewBox="0 0 120 38" fill="none" xmlns="http://www.w3.org/2000/svg">
<path d="M54.9992 28.7398C53.9655 28.7398 53.031 28.7398 52.1955 28.7398C51.3686 28.7398 50.5804 28.7398 49.8311 28.7398C49.8311 27.7074 49.8311 26.7177 49.8311 25.7706C49.8311 24.815 49.8311 23.7783 49.8311 22.6606V16.5814C49.8311 15.8306 49.8311 15.1224 49.8311 14.4569C49.8311 13.7914 49.8311 13.1387 49.8311 12.4988C49.8311 11.8503 49.8311 11.1805 49.8311 10.4894H60.7745V11.6797C59.8615 11.6797 58.8839 11.6797 57.8416 11.6797C56.7994 11.6797 55.5677 11.6797 54.1464 11.6797H50.4125L51.1102 10.643C51.1102 11.6754 51.1102 12.6694 51.1102 13.625C51.1102 14.5721 51.1102 15.6088 51.1102 16.735V22.4815C51.1102 23.42 51.1102 24.2945 51.1102 25.1051C51.1102 25.9157 51.1102 26.7476 51.1102 27.6008H54.857C56.0285 27.6008 57.0319 27.4771 57.8675 27.2296C58.7116 26.9737 59.3576 26.5343 59.8055 25.9114C60.2534 25.28 60.4774 24.3927 60.4774 23.2493C60.4774 22.3279 60.3094 21.6112 59.9735 21.0992C59.6461 20.5873 59.2284 20.2161 58.7202 19.9858C58.2206 19.7554 57.7081 19.6189 57.1827 19.5762C56.6573 19.525 56.1964 19.4994 55.8002 19.4994H50.9293V18.3604C51.4805 18.3604 52.1739 18.3604 53.0094 18.3604C53.8536 18.3604 54.8097 18.3604 55.8777 18.3604C57.2301 18.3604 58.3412 18.5438 59.2112 18.9107C60.0897 19.2691 60.7401 19.8151 61.1621 20.5489C61.5928 21.2741 61.8081 22.1914 61.8081 23.3005C61.8081 24.3415 61.6057 25.2757 61.2009 26.1034C60.7961 26.9225 60.0984 27.5666 59.1078 28.0359C58.1173 28.5052 56.7477 28.7398 54.9992 28.7398Z" fill="url(#paint0_linear_302_1686)"/>
<path d="M65.7038 28.7398C65.7038 27.7074 65.7038 26.7177 65.7038 25.7706C65.7038 24.815 65.7038 23.7826 65.7038 22.6734V16.5814C65.7038 15.4552 65.7038 14.4142 65.7038 13.4586C65.7038 12.503 65.7038 11.5133 65.7038 10.4894H66.9829C66.9829 11.5218 66.9829 12.5158 66.9829 13.4714C66.9829 14.4185 66.9829 15.4552 66.9829 16.5814V26.4233H67.1121L71.673 20.1394C72.7927 18.6036 73.934 17.0336 75.0968 15.4296C76.2597 13.8255 77.4526 12.1788 78.6758 10.4894H79.8386C79.8386 11.5133 79.8386 12.503 79.8386 13.4586C79.8386 14.4142 79.8386 15.4552 79.8386 16.5814V22.6734C79.8386 23.7826 79.8386 24.815 79.8386 25.7706C79.8386 26.7177 79.8386 27.7074 79.8386 28.7398H78.5595C78.5595 27.7074 78.5595 26.7177 78.5595 25.7706C78.5595 24.815 78.5595 23.7783 78.5595 22.6606V12.7803H78.4303L73.8823 19.0515C72.4956 20.9542 71.2337 22.6905 70.0967 24.2604C68.9597 25.8303 67.8787 27.3235 66.8537 28.7398H65.7038Z" fill="url(#paint1_linear_302_1686)"/>
<path d="M93.1945 28.983C91.6871 28.983 90.3606 28.7398 89.2151 28.2535C88.0695 27.7586 87.1091 27.076 86.3338 26.2058C85.5672 25.3269 84.9858 24.3244 84.5896 23.1982C84.202 22.0634 84.0082 20.8603 84.0082 19.589C84.0082 17.8143 84.3743 16.2188 85.1064 14.8025C85.8386 13.3776 86.8851 12.2513 88.246 11.4237C89.6156 10.5876 91.2478 10.1695 93.1428 10.1695C94.5899 10.1695 95.8733 10.4126 96.993 10.899C98.1128 11.3853 99.0603 12.0594 99.8355 12.9211C100.619 13.7829 101.209 14.7811 101.606 15.9159C102.01 17.0507 102.213 18.2708 102.213 19.5762C102.213 21.3765 101.847 22.9849 101.115 24.4012C100.391 25.8175 99.3532 26.9353 98.0008 27.7544C96.6571 28.5734 95.055 28.983 93.1945 28.983ZM93.1428 27.78C94.4951 27.78 95.658 27.5581 96.6313 27.1144C97.6046 26.6622 98.4014 26.0479 99.0215 25.2715C99.6503 24.4951 100.115 23.6205 100.417 22.6478C100.718 21.6666 100.869 20.6428 100.869 19.5762C100.869 18.4329 100.705 17.3664 100.378 16.3767C100.059 15.3784 99.5771 14.5081 98.9311 13.7658C98.2851 13.015 97.4797 12.4305 96.515 12.0124C95.5503 11.5858 94.4262 11.3725 93.1428 11.3725C91.8163 11.3725 90.6621 11.5944 89.6802 12.038C88.7069 12.4817 87.8972 13.0918 87.2512 13.8682C86.6138 14.6361 86.1357 15.5106 85.817 16.4918C85.5069 17.473 85.3519 18.5012 85.3519 19.5762C85.3519 20.6598 85.5026 21.6965 85.8041 22.6862C86.1142 23.6674 86.5836 24.542 87.2124 25.3099C87.8498 26.0778 88.6595 26.6836 89.6414 27.1272C90.6234 27.5624 91.7905 27.78 93.1428 27.78Z" fill="url(#paint2_linear_302_1686)"/>
<path d="M114.445 28.983C113.006 28.983 111.71 28.7441 110.556 28.2663C109.41 27.7885 108.437 27.123 107.636 26.2698C106.835 25.4165 106.219 24.4183 105.788 23.2749C105.366 22.1231 105.155 20.8859 105.155 19.5634C105.155 17.7119 105.538 16.0823 106.305 14.6745C107.08 13.2581 108.14 12.1532 109.483 11.3597C110.827 10.5662 112.36 10.1695 114.083 10.1695C114.703 10.1695 115.302 10.2164 115.879 10.3103C116.456 10.4041 116.999 10.5278 117.507 10.6814C118.015 10.835 118.48 11.0014 118.902 11.1805C119.333 11.3512 119.699 11.5218 120 11.6925L119.845 12.9979C119.174 12.6139 118.515 12.3068 117.869 12.0764C117.231 11.8375 116.598 11.6626 115.969 11.5517C115.349 11.4408 114.738 11.3853 114.135 11.3853C112.644 11.3853 111.322 11.7223 110.168 12.3964C109.022 13.0704 108.122 14.0218 107.468 15.2504C106.822 16.479 106.499 17.9253 106.499 19.589C106.499 20.7238 106.667 21.7861 107.003 22.7758C107.339 23.7655 107.842 24.6358 108.514 25.3867C109.186 26.129 110.022 26.7134 111.021 27.14C112.02 27.5666 113.174 27.78 114.483 27.78C114.94 27.78 115.392 27.7544 115.84 27.7032C116.297 27.6434 116.745 27.5581 117.184 27.4472C117.632 27.3277 118.067 27.1742 118.489 26.9865C118.911 26.7902 119.316 26.5556 119.703 26.2826L119.871 27.588C119.509 27.8269 119.113 28.0359 118.683 28.2151C118.252 28.3943 117.804 28.5393 117.339 28.6502C116.874 28.7612 116.396 28.8422 115.905 28.8934C115.422 28.9531 114.936 28.983 114.445 28.983Z" fill="url(#paint3_linear_302_1686)"/>
<path d="M30.2159 19.0161L30.1953 19.1472L30.1623 19.2912C29.9578 20.1764 29.7257 21.1792 29.0064 21.8203L28.9266 21.8909L28.9484 21.7871C29.0374 21.3513 29.1947 20.9331 29.3471 20.5297C29.5226 20.0613 29.7045 19.5788 29.7793 19.0697C29.8965 18.5725 29.9091 18.0627 29.9219 17.5697C29.933 17.1316 29.9444 16.6782 30.0282 16.2338L30.048 16.1281L30.0946 16.2254C30.5128 17.0964 30.3549 18.1168 30.2159 19.0161ZM28.6064 23.2322C28.548 23.3175 28.4838 23.3937 28.4211 23.4679C28.3871 23.5073 28.3533 23.5474 28.3201 23.5884L28.3095 23.5976C28.2009 23.6568 28.0028 23.7633 27.7989 23.8747C27.5698 23.9982 27.3313 24.1272 27.2038 24.197L26.4675 24.5962C26.1464 24.7895 26.0138 24.8389 25.6296 24.8451L25.5618 24.8465L25.5998 24.7901C25.8207 24.4637 25.9299 24.3867 26.2663 24.2238L27.002 23.8247C27.129 23.7569 27.3595 23.6314 27.5846 23.5095C27.7919 23.3965 27.9956 23.2865 28.1078 23.226L28.1212 23.2216C28.1734 23.2168 28.2249 23.2096 28.2763 23.2034C28.3723 23.1914 28.4724 23.1786 28.5768 23.1766L28.6452 23.1752L28.6064 23.2322ZM19.634 26.8643L19.5916 26.8883C19.5634 26.9053 19.5347 26.9251 19.5063 26.9449C19.4323 26.9948 19.3575 27.0478 19.2822 27.0478C19.2616 27.0478 19.2404 27.0434 19.22 27.0344L19.0239 27.0138C18.7694 26.9878 18.4089 26.9496 18.2468 26.9343C17.9795 26.8481 17.8927 26.8093 17.7856 26.5328L17.7728 26.4998L17.8066 26.4878C18.0493 26.3989 18.1276 26.4137 18.3279 26.5166C18.5219 26.5372 18.9103 26.5774 19.1488 26.6014L19.2638 26.6126C19.3631 26.5936 19.4471 26.6768 19.5261 26.7599C19.5501 26.7853 19.574 26.8107 19.5974 26.8319L19.634 26.8643ZM27.8159 30.6234L27.7721 30.8265C27.4033 32.5256 27.0224 34.2825 25.8009 35.559L25.6478 35.7191L25.7437 35.5194C27.2531 32.3655 27.8469 29.3271 27.5084 26.4878C25.5146 27.3299 23.8247 28.5542 22.6194 30.0296C22.5502 30.115 22.4261 30.1326 22.3351 30.0712C21.132 29.2185 19.5515 28.7749 17.7326 28.7749C17.5097 28.7749 17.284 28.7819 17.0535 28.7947C17.0225 30.4442 17.4765 32.1116 17.9159 33.7245C18.0775 34.3177 18.244 34.9312 18.3815 35.5266L18.4315 35.7431L18.3166 35.5526C17.7482 34.6095 17.349 33.5356 17.1296 32.3591L17.0733 32.0912C16.7686 30.6531 16.4533 29.1672 16.712 27.7052C16.4363 27.71 16.2692 27.7021 16.1874 27.684L16.176 27.679C16.1021 27.6324 16.0223 27.5844 15.9391 27.5358C15.5667 27.3157 15.1451 27.0654 14.9405 26.7064L14.9079 26.6508L14.9729 26.6542C15.3856 26.6746 15.8008 26.9391 16.1668 27.1726C16.2282 27.2121 16.2882 27.2501 16.346 27.2861C16.4243 27.2847 16.5175 27.2819 16.6218 27.2791L16.7982 27.2749C16.7996 27.2677 16.801 27.2601 16.8024 27.2537C16.8905 27.0076 16.9787 26.7671 17.0669 26.528C17.5387 25.2486 17.9851 24.0398 18.1014 22.685L17.186 21.5466C16.8955 21.2158 16.7326 20.9775 16.5915 20.5213L16.5655 20.4365L16.6422 20.4795C17.0585 20.7152 17.2566 20.9261 17.5175 21.283L18.9683 23.0876C19.2574 23.4177 19.4125 23.6442 19.5629 24.1124L19.591 24.1998L19.5113 24.1534C19.0874 23.9071 18.8991 23.707 18.6374 23.3507L18.27 22.8945C18.3484 23.544 18.2772 24.2238 18.0493 25.0152C18.0549 25.013 18.0613 25.0102 18.0677 25.008C18.0903 25.001 18.1494 24.9701 18.2114 24.9377C18.4111 24.8325 18.5557 24.7591 18.6206 24.7823C18.7596 24.8015 19.0211 24.8395 19.28 24.8763C19.5289 24.9115 19.7752 24.9461 19.9111 24.9665C19.9909 24.9623 20.067 25.0088 20.1354 25.063C20.259 25.1372 20.3181 25.1824 20.3103 25.2373C20.3019 25.2923 20.2336 25.3199 20.0938 25.3551C19.9767 25.4179 19.78 25.3819 19.6058 25.3509C19.5353 25.3381 19.4683 25.3255 19.4217 25.3233C19.4181 25.3233 18.8152 25.2365 18.6184 25.2084C18.5579 25.2373 18.5041 25.2647 18.4541 25.2901C18.2722 25.3833 18.1388 25.4517 17.9139 25.4517H17.9125C17.8693 25.58 17.8258 25.707 17.7806 25.8311C17.8455 25.8065 17.9047 25.7937 17.9667 25.7923L18.5041 25.7036C18.5247 25.7014 18.5473 25.7014 18.5719 25.7036C18.8054 25.7415 19.4091 25.8361 19.6354 25.8713C19.7412 25.9109 19.8321 25.9876 19.9203 26.0618C19.9401 26.078 19.9599 26.0942 19.9789 26.1104L20.0261 26.1486L19.9697 26.1712C19.9457 26.1796 19.9217 26.1894 19.8985 26.1994C19.792 26.2423 19.6812 26.2875 19.5762 26.2917C19.4105 26.2649 19.0606 26.21 18.7878 26.1668L18.5373 26.1266C18.4731 26.1344 18.3779 26.152 18.2778 26.1718C18.0649 26.2114 17.8439 26.2557 17.744 26.2345L17.6916 26.2161C17.6762 26.21 17.6614 26.2042 17.6458 26.1994L17.5479 26.4575C17.4469 26.7225 17.3426 26.9948 17.2474 27.2629L18.232 27.2375C18.3949 27.2227 18.5571 27.2811 18.7144 27.3377C18.775 27.3587 18.8371 27.3807 18.8969 27.3983L19.0049 27.4287L18.8991 27.4646C18.8413 27.485 18.7834 27.509 18.7222 27.5344C18.5733 27.5964 18.4189 27.6614 18.2608 27.6614C18.234 27.6614 18.2052 27.66 18.167 27.66C18.0233 27.66 17.7918 27.6692 17.5303 27.679C17.4075 27.6846 17.2798 27.6896 17.1536 27.6946C17.1135 27.9371 17.0872 28.1452 17.0719 28.3427L17.0895 28.3399C20.0735 28.1996 23.0215 27.2044 25.7627 26.15L25.7939 26.2134C24.0016 27.3179 21.8767 28.0838 19.4747 28.4906C20.5756 28.679 21.5628 29.0584 22.4135 29.6206C23.7781 27.9694 25.5808 26.8235 27.495 26.3891C27.4532 26.0548 27.4033 25.6994 27.3277 25.3467L27.2785 25.1182L27.3927 25.3213C28.2743 26.8891 28.117 28.7961 27.8159 30.6234ZM22.9037 36.1569L22.8563 36.2671L22.714 35.4158L22.7414 34.6915C22.7915 33.4502 22.6392 32.1891 22.4833 31.1194L22.4827 31.115L22.4833 31.1102C22.4919 31.0312 22.4995 30.9514 22.5067 30.8717C22.5221 30.7059 22.5383 30.536 22.5664 30.3639L22.5848 30.2553L22.6336 30.3541C22.8395 30.7751 22.9481 31.2025 22.9967 31.7837C23.01 31.895 23.025 32.0064 23.0398 32.1186C23.0876 32.4846 23.1378 32.8626 23.147 33.2385C23.1484 33.4282 23.1548 33.6243 23.1618 33.8149C23.1886 34.6081 23.2168 35.4284 22.9037 36.1569ZM14.7196 25.5052C14.2634 25.2887 13.9094 25.03 13.4967 24.6146L11.3126 22.5904C10.8648 22.2104 10.5713 21.8661 10.333 21.4401L10.28 21.3449L10.3788 21.3907C10.821 21.5952 11.1871 21.8611 11.6011 22.2808L13.7852 24.3057C14.2302 24.6844 14.5137 25.018 14.7656 25.4567L14.8212 25.5546L14.7196 25.5052ZM13.4333 26.7198L9.94577 24.5708C8.70027 23.8275 7.82921 23.1582 7.62969 22.3055C7.46176 21.5876 7.74945 20.7244 8.59231 19.4189L8.59871 19.4231C8.6367 19.3405 8.82222 19.0203 9.6143 17.6464C9.72225 17.4405 9.847 17.2184 10.0057 16.9503C9.91958 16.2494 10.1996 15.4687 10.756 14.858C10.7632 14.8516 10.7702 14.846 10.7766 14.8402C10.7674 14.8318 10.7588 14.824 10.7498 14.8148C10.7272 14.7938 10.7047 14.7718 10.6813 14.7514C10.3012 14.3324 10.1221 13.8902 10.1467 13.4345C10.1983 12.5071 11.0657 11.6631 11.879 10.943C11.8676 10.4288 11.8472 9.76024 11.7878 9.1169C11.5629 7.74586 12.8522 6.66269 13.2528 6.36441C13.6808 6.03994 14.159 5.70488 14.755 5.31064C15.9667 3.59833 17.8849 2.50859 19.799 2.43462C17.9611 1.77508 15.8989 2.31746 14.7288 3.78586L14.6718 3.74428C15.9455 1.88164 18.6474 1.2187 20.5734 2.29426C20.6454 2.33025 20.6892 2.40501 20.6856 2.49018C20.682 2.57495 20.6326 2.64612 20.5573 2.67651C18.5325 3.55795 16.6726 4.55315 15.0315 5.63291C14.5067 6.384 14.171 7.23465 14.0321 8.16208C13.9411 8.45396 13.8804 8.75385 13.8368 9.00195C15.0117 7.67749 16.0351 6.22187 16.7988 5.09492L16.9837 4.82265L16.8609 5.12792C16.0759 7.08092 14.6724 8.96816 12.5707 10.8972C12.4883 10.9747 12.398 11.0557 12.3048 11.1391L12.307 11.2836C12.3126 11.5783 12.3176 11.8824 12.3176 12.1687C12.3634 13.0545 12.1307 13.9735 11.5861 15.0561C11.924 15.3798 12.338 15.781 12.6109 16.2832C13.0101 16.9857 13.1934 17.8475 13.1273 18.7086C13.0997 18.8905 13.0631 19.0727 13.0143 19.2672C13.1808 19.3681 13.348 19.4675 13.5151 19.5663C14.0053 19.8575 14.5109 20.1586 14.9905 20.4817L15.1373 20.5805L14.9645 20.5452C14.288 20.4091 13.6251 20.1424 12.881 19.7058C12.7302 20.1614 12.5347 20.5966 12.3006 21.0007L12.2372 20.9711C12.415 20.4789 12.5439 20.0007 12.6215 19.5479C12.0255 19.1762 11.453 18.7468 10.8978 18.3314L10.797 18.2558C10.5191 18.0599 10.3076 17.8136 10.1687 17.5245L10.1461 17.5627C10.0889 17.6612 10.0325 17.7608 9.98034 17.8581C9.80601 18.1804 9.58671 18.5507 9.3554 18.9421C8.868 19.7644 8.31582 20.6968 8.05913 21.4113C7.70447 22.5277 8.67347 23.2076 9.52812 23.8085C9.75323 23.9665 9.96616 24.1152 10.1531 24.269L13.4721 26.6606L13.4333 26.7198ZM19.0515 17.4229C19.1418 16.6155 19.8181 16.0703 20.3195 15.7316C20.3865 15.6886 20.4549 15.6478 20.5233 15.6063C20.9917 15.3226 21.4755 15.0285 21.5419 14.4755C21.5185 14.4044 21.4599 14.1527 21.4783 14.0715L21.4769 14.0017C21.4733 13.8782 21.4699 13.7506 21.4747 13.6223L21.4791 13.5093L21.5396 13.6039C21.5714 13.654 21.6052 13.704 21.6384 13.7528C21.7718 13.9501 21.9107 14.1547 21.9621 14.3974C21.9883 14.846 21.7026 15.2584 21.4269 15.4975C21.2138 15.6738 20.9895 15.815 20.773 15.9511C20.4233 16.1724 20.0924 16.3805 19.826 16.7176C19.6558 16.9603 19.4457 17.15 19.2228 17.3518C19.1854 17.3849 19.148 17.4187 19.11 17.4533L19.0409 17.5167L19.0515 17.4229ZM18.2906 17.0583C18.1818 16.6055 17.8857 16.2988 17.5719 15.9751C17.4399 15.8396 17.3038 15.6992 17.1832 15.5469L17.1388 15.4911L17.21 15.4897H17.2318C17.7756 15.4897 18.148 15.8862 18.3757 16.2514C18.4329 15.9841 18.5133 15.7388 18.6134 15.5201C18.8715 15.1992 18.9541 15.1822 19.0043 15.207C19.0958 15.2564 19.0423 15.4841 18.8871 15.9771C18.8715 16.0265 18.8575 16.0723 18.8447 16.1141C18.761 16.4017 18.7136 16.7022 18.7052 17.0047C18.7044 17.1266 18.6092 17.1944 18.5205 17.2058C18.5113 17.2072 18.5013 17.2078 18.4915 17.2078C18.4089 17.2078 18.3173 17.1634 18.2906 17.0583ZM16.6444 16.6542C17.4893 16.8805 18.1536 17.3342 18.3793 17.8397L18.4111 17.9109L18.3369 17.8877C18.0409 17.7974 17.7722 17.6486 17.5125 17.5033C17.2108 17.3356 16.8989 17.162 16.5463 17.0859C16.1994 16.9715 15.8432 16.9653 15.4977 16.9589C15.2006 16.9539 14.8932 16.9483 14.5913 16.8763L14.5173 16.858L14.5793 16.8136C15.0195 16.4919 15.8122 16.4313 16.6444 16.6542ZM17.9731 10.9359C18.0303 11.1213 17.9963 11.261 17.9421 11.4388L17.9307 11.4761L17.8947 11.4605C17.727 11.3916 17.614 11.2666 17.5619 11.0875C17.4547 10.7264 17.619 10.2122 17.8278 9.91117C17.8553 9.86099 17.8927 9.81522 17.9399 9.77423C17.5753 9.6135 17.229 9.31241 16.9357 9.03652L16.9299 9.02954C16.808 8.82862 16.6846 8.6085 16.6084 8.3658L16.5745 8.25805L16.698 8.3552C16.875 8.49414 17.0429 8.6255 17.2262 8.73046L17.234 8.73684C17.6902 9.21645 18.0755 9.45196 18.4069 9.45196C18.4385 9.45196 18.4697 9.45056 18.4999 9.44636C19.0049 9.37659 19.3413 8.73745 19.6982 8.06112C19.8575 7.75864 20.0219 7.44618 20.2088 7.17109L20.2694 7.08152L20.273 7.18948C20.3039 8.10991 19.8229 9.05212 18.9859 9.70945C18.7926 9.8498 18.5819 9.90477 18.3384 9.88298C18.3378 9.88498 18.3377 9.88719 18.3369 9.88919C18.3293 9.91817 18.3207 9.94855 18.318 9.97534L18.3166 9.98794L18.3074 9.99713C18.0529 10.2454 17.9279 10.5967 17.9731 10.9359ZM13.4487 13.8218C13.4981 14.3198 13.7126 14.7612 13.9192 15.1886C14.0413 15.4419 14.1674 15.7028 14.2612 15.9751L14.2916 16.0633L14.2112 16.0173C13.6089 15.678 13.1491 14.8536 13.0123 13.8656C12.8768 12.8924 13.0913 11.9881 13.5709 11.5049L13.6357 11.4394L13.6309 11.5319C13.6167 11.8196 13.5673 12.1045 13.5201 12.381C13.4353 12.8698 13.355 13.3316 13.4487 13.8218ZM16.4109 24.733C16.4907 24.6718 16.6324 24.5602 16.7742 24.4495C16.9251 24.3317 17.0767 24.2134 17.1578 24.1506L17.1656 24.1442L17.1748 24.1434C17.2156 24.1372 17.2558 24.13 17.296 24.1222C17.3715 24.1082 17.4497 24.0934 17.5351 24.0878L17.5866 24.0848L17.5705 24.1342C17.5451 24.2148 17.5111 24.2873 17.4795 24.3565C17.4625 24.3939 17.4449 24.4313 17.4293 24.4701L17.4181 24.4841C17.3454 24.5412 17.2128 24.6442 17.0767 24.7507C16.9201 24.8727 16.758 24.9988 16.6712 25.0666C16.5069 25.1936 16.0831 25.525 15.9249 25.65L15.9179 25.6562L15.9087 25.6576C15.8721 25.6634 15.8362 25.6704 15.8002 25.6768C15.7198 25.6916 15.6373 25.707 15.5469 25.7114L15.4961 25.7142L15.5111 25.6662C15.5379 25.58 15.5731 25.5032 15.6069 25.4299C15.6225 25.3967 15.638 25.3629 15.6528 25.3283L15.6556 25.3199L15.6634 25.3141C15.8206 25.193 16.2488 24.8599 16.4109 24.733ZM14.3552 19.0515C13.5349 18.229 13.2386 17.1668 13.5623 16.2112L13.6061 16.0823L13.6309 16.2162C13.745 16.8474 13.8628 17.3729 14.0625 17.8863C14.5837 19.0655 16.0865 20.0269 17.4935 19.5746C17.744 19.5487 18.0083 19.4717 18.3335 19.3299L18.4683 19.2714L18.3743 19.3849C18.1896 19.6092 17.9393 19.8073 17.6304 19.9747L17.6246 19.9775C17.3517 20.0691 17.0647 20.1136 16.7728 20.1136C15.9249 20.1136 15.0391 19.7362 14.3552 19.0515ZM25.8615 21.2716L25.8503 21.266L25.8453 21.254C25.8347 21.2292 25.8235 21.2046 25.8129 21.18C25.7875 21.1228 25.7607 21.0642 25.741 20.9931L25.7325 20.9599L25.7641 20.9493C25.8333 20.9281 25.8955 20.9175 25.9553 20.9083C25.9836 20.9035 26.0118 20.8991 26.04 20.8935L26.0526 20.8907L26.064 20.8971C26.181 20.9619 26.5018 21.1368 26.624 21.2024C26.686 21.2356 26.7975 21.2964 26.9081 21.3555C27.0174 21.4147 27.1268 21.4741 27.186 21.5065L27.1966 21.5129L27.2015 21.5249C27.2127 21.5536 27.2255 21.5804 27.2375 21.608C27.2615 21.6616 27.2861 21.7174 27.3059 21.7844L27.3159 21.8175L27.2819 21.8273C27.2177 21.8471 27.1586 21.8563 27.1008 21.8661C27.0704 21.8711 27.0394 21.8759 27.0082 21.8817L26.9956 21.8845L26.9836 21.8789C26.9329 21.8513 26.8433 21.8027 26.7487 21.7512C26.6254 21.6842 26.492 21.6122 26.4229 21.5748C26.3003 21.5071 25.9806 21.3351 25.8615 21.2716ZM24.1322 24.6434C24.157 24.549 24.1914 24.4643 24.2246 24.3819C24.2393 24.3465 24.2542 24.3099 24.2683 24.2731L24.2775 24.2598C24.4397 24.1118 24.8799 23.7056 25.0462 23.5516C25.121 23.4833 25.2465 23.3669 25.3785 23.245C25.5462 23.0898 25.7233 22.9261 25.8149 22.8423L25.8291 22.8345C25.8729 22.8217 25.9151 22.8083 25.9574 22.7949C26.0364 22.7704 26.1182 22.7442 26.2071 22.7272L26.2635 22.716L26.2479 22.7709C26.2233 22.8591 26.1902 22.9395 26.1592 23.0179C26.1422 23.0572 26.126 23.0982 26.1106 23.1398L26.102 23.1532C26.023 23.2266 25.8777 23.3599 25.7304 23.4966C25.5758 23.6384 25.4187 23.7831 25.3339 23.8621L25.3333 23.8627C25.164 24.0178 24.729 24.4213 24.5666 24.5722L24.5518 24.5806C24.5138 24.5912 24.4757 24.604 24.4377 24.6152C24.3537 24.6428 24.2676 24.6704 24.1724 24.6866L24.1182 24.6964L24.1322 24.6434ZM22.6406 23.9311L22.6272 23.9439C22.5566 24.0158 22.4889 24.034 22.4205 24.034C22.3859 24.034 22.3507 24.0292 22.3147 24.0242C22.2949 24.0214 22.2738 24.0186 22.252 24.0164L22.226 24.0136L22.221 23.9891C22.2118 23.9489 22.1984 23.9129 22.1786 23.8727C22.1568 23.8309 22.1306 23.7831 22.1004 23.7436L22.0834 23.7232L22.2168 23.5432L22.226 23.539C22.2879 23.5158 22.3337 23.5053 22.3825 23.4939L22.4367 23.4813L22.4501 23.5016C22.5249 23.6174 22.6068 23.7542 22.637 23.9129L22.6406 23.9311ZM23.149 19.6586L23.0976 20.0966C23.0694 20.4937 23.0278 20.6608 22.8099 21.0023L22.7703 21.0634L22.7464 20.9951C22.6138 20.6122 22.613 20.4393 22.678 20.0459L22.8917 18.2248C22.9213 17.8306 22.9601 17.674 23.1794 17.32L23.219 17.2558L23.243 17.327C23.3733 17.7234 23.3747 17.8849 23.3119 18.2756L23.19 19.3124C23.4341 19.5648 23.671 19.8328 23.9001 20.0924C24.4913 20.7624 25.1026 21.4543 25.8919 21.9325C25.9505 21.9691 25.985 22.0347 25.9856 22.1066C25.9864 22.1786 25.9525 22.2448 25.8947 22.2837L24.9215 22.9529C24.65 23.1708 24.3169 23.2985 23.994 23.4219C23.9433 23.4411 23.8917 23.4615 23.8409 23.4813L23.7268 23.5262L23.8001 23.4277C24.1612 22.9389 24.8261 22.4925 25.3615 22.1328L25.4101 22.1002C24.499 21.4197 23.604 20.6524 23.149 19.6586ZM28.093 21.1968L28.0598 21.3005L28.026 21.1968C27.8737 20.7208 27.8237 20.3118 27.8483 19.7384V16.8474C27.8221 16.2684 27.8745 15.846 28.0268 15.3896L28.0598 15.2896L28.093 15.3896C28.2461 15.8474 28.2975 16.2698 28.2715 16.8488V19.7398C28.2955 20.3061 28.2439 20.7286 28.093 21.1968ZM21.5756 4.52496C21.5115 4.30145 21.4445 4.07014 21.3851 3.84024L21.3499 3.7027L21.4459 3.80765C22.6194 5.09333 22.7605 7.53934 21.7682 9.28264C24.2499 9.859 27.7291 11.1003 30.3111 13.7512C30.3315 13.7724 30.3421 13.8 30.3407 13.8296L30.3013 14.8396L30.2307 14.843L30.0968 13.8558C27.0034 11.5333 24.1456 10.1269 21.6016 9.67767C21.5798 9.67767 21.548 9.67847 21.5079 9.68267C21.3231 9.93297 21.1192 10.1475 20.9013 10.3194L20.7892 10.4084L20.8471 10.2772C20.9177 10.1191 20.9903 9.96395 21.07 9.79682C20.8083 9.89418 20.5037 10.0571 20.3555 10.2504C20.2738 10.3314 20.2356 10.4148 20.235 10.5099C20.2336 10.768 20.5085 11.0663 20.7908 11.3498C21.1524 11.7032 21.5642 12.1039 21.8979 12.5615L22.7458 13.6393L22.9107 13.2104C22.9523 13.1011 23.0758 13.0475 23.1836 13.0877L24.7374 13.6836C25.0992 13.8296 25.4489 14.0215 25.7875 14.2076C25.9349 14.2888 26.0822 14.3692 26.2303 14.4467L26.4702 14.5715L26.2063 14.5123C25.9279 14.4495 25.65 14.379 25.3911 14.312C24.9299 14.2246 23.9869 13.8564 23.3627 13.6117L23.2296 13.5595L23.1074 13.8762C23.3607 14.5843 23.8417 16.3432 22.9727 17.6732C22.5708 18.2664 21.8979 18.6784 21.1722 18.775C21.06 18.7904 20.9479 18.7976 20.8379 18.7976C20.29 18.7976 19.7786 18.6134 19.3709 18.2644L19.213 18.1282L19.4069 18.2044C20.3555 18.5761 21.3965 18.4681 22.1244 17.9251C22.7907 17.4279 23.1152 16.6506 23.0384 15.7352C23.0666 15.2768 22.9453 14.8296 22.8281 14.398C22.7768 14.2068 22.7224 14.0073 22.6836 13.814L22.6814 13.8036L22.7012 13.7528L21.6496 12.7942C21.4113 12.5883 21.1912 12.3598 20.9783 12.1391C20.8223 11.9761 20.6602 11.8076 20.4903 11.6483C20.4557 11.6109 20.4211 11.5741 20.3859 11.5375C20.1052 11.244 19.787 10.912 19.8153 10.4619C19.9633 9.76023 20.706 9.39838 21.3047 9.29902C21.6136 8.63748 21.9163 7.92578 21.9601 7.12951V7.1275C22.0658 6.22886 21.8167 5.36362 21.5756 4.52496ZM18.9745 0C8.49496 0 0 8.49496 0 18.9745C0 29.454 8.49496 37.9492 18.9745 37.9492C29.4542 37.9492 37.9492 29.454 37.9492 18.9745C37.9492 8.49496 29.4542 0 18.9745 0Z" fill="url(#paint4_linear_302_1686)"/>
<path d="M2.22535 17.9293C2.56583 18.3707 2.94028 18.7474 3.26673 19.0599C3.27355 18.9399 3.28037 18.8088 3.28037 18.6798V18.6762C3.36568 17.5351 3.10331 16.5343 2.43097 15.4355C2.27939 15.8685 2.11365 16.2974 1.95396 16.7106C1.91163 16.82 1.86995 16.9285 1.82812 17.0365C1.88088 17.4045 2.01432 17.705 2.22535 17.9293Z" fill="url(#paint5_linear_302_1686)"/>
<path d="M1.86719 16.1117C1.9884 15.8006 2.11232 15.4741 2.22633 15.1435C2.06149 15.4262 1.93719 15.7634 1.86719 16.1117Z" fill="url(#paint6_linear_302_1686)"/>
<path d="M2.23276 14.5503C2.23778 14.5581 2.2428 14.5651 2.24821 14.5737C2.31769 14.4875 2.39618 14.4015 2.486 14.3098C2.68892 13.5517 2.77835 12.85 2.75931 12.1644C2.75931 12.0149 2.75751 11.8612 2.7557 11.7052L2.75391 11.5105C2.35256 12.0727 1.93591 12.7272 1.91134 13.4339C1.89873 13.795 1.98712 14.1335 2.18232 14.4705C2.19777 14.4975 2.21552 14.5243 2.23276 14.5503Z" fill="url(#paint7_linear_302_1686)"/>
<path d="M2.96176 9.08391C2.98801 9.52673 3.00615 10.0147 3.01761 10.5755C3.29581 10.1855 3.58276 9.73764 3.89364 9.20646C3.86559 8.84341 3.85593 8.47017 3.86597 8.09652C3.92683 7.45458 4.06027 6.81563 4.26268 6.19288C4.2273 6.23106 4.19152 6.26906 4.15601 6.30645C4.03891 6.4314 3.91732 6.56033 3.80241 6.69508C3.39347 7.19507 2.86049 7.98715 2.96176 9.08251V9.08391Z" fill="url(#paint8_linear_302_1686)"/>
<path d="M5.42676 4.51538C6.074 3.91662 6.76449 3.34885 7.48534 2.82126C6.67287 3.20351 5.96926 3.78268 5.42676 4.51538Z" fill="url(#paint9_linear_302_1686)"/>
<defs>
<linearGradient id="paint0_linear_302_1686" x1="49.8311" y1="19.5762" x2="120" y2="19.5762" gradientUnits="userSpaceOnUse">
<stop stop-color="#F4DAA5"/>
<stop offset="1" stop-color="#DAAC70"/>
</linearGradient>
<linearGradient id="paint1_linear_302_1686" x1="49.8311" y1="19.5762" x2="120" y2="19.5762" gradientUnits="userSpaceOnUse">
<stop stop-color="#F4DAA5"/>
<stop offset="1" stop-color="#DAAC70"/>
</linearGradient>
<linearGradient id="paint2_linear_302_1686" x1="49.8311" y1="19.5762" x2="120" y2="19.5762" gradientUnits="userSpaceOnUse">
<stop stop-color="#F4DAA5"/>
<stop offset="1" stop-color="#DAAC70"/>
</linearGradient>
<linearGradient id="paint3_linear_302_1686" x1="49.8311" y1="19.5762" x2="120" y2="19.5762" gradientUnits="userSpaceOnUse">
<stop stop-color="#F4DAA5"/>
<stop offset="1" stop-color="#DAAC70"/>
</linearGradient>
<linearGradient id="paint4_linear_302_1686" x1="0" y1="18.9746" x2="37.9492" y2="18.9746" gradientUnits="userSpaceOnUse">
<stop stop-color="#F7DFAA"/>
<stop offset="1" stop-color="#D9AA6F"/>
</linearGradient>
<linearGradient id="paint5_linear_302_1686" x1="1.82812" y1="17.2477" x2="3.29595" y2="17.2477" gradientUnits="userSpaceOnUse">
<stop stop-color="#F7DFAA"/>
<stop offset="1" stop-color="#D9AA6F"/>
</linearGradient>
<linearGradient id="paint6_linear_302_1686" x1="1.86719" y1="15.6276" x2="2.22633" y2="15.6276" gradientUnits="userSpaceOnUse">
<stop stop-color="#F7DFAA"/>
<stop offset="1" stop-color="#D9AA6F"/>
</linearGradient>
<linearGradient id="paint7_linear_302_1686" x1="1.91016" y1="13.0421" x2="2.76181" y2="13.0421" gradientUnits="userSpaceOnUse">
<stop stop-color="#F7DFAA"/>
<stop offset="1" stop-color="#D9AA6F"/>
</linearGradient>
<linearGradient id="paint8_linear_302_1686" x1="2.94922" y1="8.3842" x2="4.26268" y2="8.3842" gradientUnits="userSpaceOnUse">
<stop stop-color="#F7DFAA"/>
<stop offset="1" stop-color="#D9AA6F"/>
</linearGradient>
<linearGradient id="paint9_linear_302_1686" x1="5.42676" y1="3.66832" x2="7.48534" y2="3.66832" gradientUnits="userSpaceOnUse">
<stop stop-color="#F7DFAA"/>
<stop offset="1" stop-color="#D9AA6F"/>
</linearGradient>
</defs>
</svg>
